{"glyphs":{"0":{"ha":908,"x_min":-6,"x_max":915,"o":"m -6 -160 l 915 -160 l 915 -360 l -6 -360 l -6 -160 m -6 1154 l 915 1154 l 915 954 l -6 954 l -6 1154 m 360 303 l 360 492 l 549 492 l 549 303 l 360 303 m 226 396 q 246 306 226 349 q 297 233 265 264 q 370 183 329 201 q 454 164 411 164 q 538 181 497 164 q 610 229 579 199 q 660 303 642 260 q 679 396 679 346 q 660 491 679 447 q 610 566 642 535 q 538 615 579 597 q 454 632 497 632 q 370 613 411 632 q 297 561 329 593 q 246 486 265 529 q 226 396 226 443 m 42 396 q 72 551 42 478 q 156 681 101 625 q 286 769 210 736 q 454 801 363 801 q 622 769 546 801 q 752 681 697 736 q 837 551 807 625 q 867 396 867 478 q 835 241 867 314 q 749 113 804 168 q 619 25 694 57 q 454 -7 543 -7 q 293 25 368 -7 q 163 113 218 57 q 74 241 107 168 q 42 396 42 314 "},"1":{"ha":378,"x_min":-6,"x_max":386,"o":"m 331 794 l 331 0 l 142 0 l 142 606 l 47 606 l 47 794 l 331 794 m -6 -160 l 385 -160 l 385 -360 l -6 -360 l -6 -160 m -6 1154 l 386 1154 l 386 954 l -6 954 l -6 1154 "},"2":{"ha":901,"x_min":-7,"x_max":910,"o":"m 910 954 l -7 954 l -7 1154 l 910 1154 l 910 954 m 910 -360 l -7 -360 l -7 -160 l 910 -160 l 910 -360 m 51 0 l 51 260 q 90 385 51 339 q 188 454 128 431 q 322 485 249 478 q 468 492 396 492 q 613 502 561 492 q 665 558 665 513 q 643 597 665 583 q 587 618 621 611 q 514 626 553 625 q 442 628 475 628 l 54 628 l 54 794 l 468 794 q 601 789 532 794 q 726 758 669 783 q 819 681 783 733 q 856 535 856 628 q 817 410 856 456 q 719 340 779 364 q 585 310 660 317 q 440 303 511 303 q 294 292 347 303 q 242 236 242 281 l 242 167 l 853 167 l 853 0 l 51 0 "},"3":{"ha":783,"x_min":-6,"x_max":792,"o":"m 792 -160 l 792 -360 l -6 -360 l -6 -160 l 792 -160 m 792 1154 l 792 954 l -6 954 l -6 1154 l 792 1154 m 350 794 q 483 789 414 794 q 608 758 551 783 q 701 681 665 733 q 738 535 738 628 q 729 484 738 506 q 708 446 721 463 q 678 417 694 429 q 647 397 663 406 q 681 372 665 385 q 710 344 697 360 q 730 308 722 328 q 738 260 738 288 q 701 113 738 165 q 608 36 665 61 q 483 6 551 11 q 350 0 414 0 l 49 0 l 49 167 l 324 167 q 396 168 357 167 q 469 176 435 169 q 525 197 503 183 q 547 236 547 211 q 532 273 547 260 q 488 293 517 286 q 418 301 458 300 q 328 303 378 303 l 194 303 l 194 492 l 324 492 q 416 493 375 492 q 486 501 457 494 q 531 521 515 507 q 547 558 547 535 q 525 597 547 583 q 469 618 503 611 q 396 626 435 625 q 324 628 357 628 l 49 628 l 49 794 l 350 794 "},"4":{"ha":896,"x_min":-6,"x_max":904,"o":"m 660 0 l 660 242 l 308 242 l 308 431 l 660 431 l 660 794 l 849 794 l 849 0 l 660 0 m 47 243 l 47 794 l 236 794 l 236 243 l 47 243 m -6 -160 l 904 -160 l 904 -360 l -6 -360 l -6 -160 m -6 1154 l 904 1154 l 904 954 l -6 954 l -6 1154 "},"5":{"ha":899,"x_min":-6,"x_max":908,"o":"m 464 0 l 50 0 l 50 167 l 438 167 q 510 168 471 167 q 583 176 549 169 q 639 197 617 183 q 661 236 661 211 q 608 292 661 281 q 463 303 556 303 l 47 303 l 47 794 l 849 794 l 849 628 l 238 628 l 238 492 l 435 492 q 581 485 507 492 q 715 454 654 478 q 813 385 775 431 q 851 260 851 339 q 815 113 851 165 q 722 36 779 61 q 597 6 665 11 q 464 0 528 0 m -6 -160 l 908 -160 l 908 -360 l -6 -360 l -6 -160 m -6 1154 l 908 1154 l 908 954 l -6 954 l -6 1154 "},"6":{"ha":897,"x_min":-6,"x_max":904,"o":"m 411 -6 l 439 -6 q 576 1 503 -6 q 709 33 649 7 q 810 113 769 60 q 850 260 850 165 l 850 492 l 260 492 q 298 543 275 518 q 346 587 321 568 q 398 617 371 606 q 449 628 425 628 l 849 628 l 849 794 l 446 794 q 313 767 381 794 q 188 692 244 739 q 92 581 131 644 q 47 447 53 518 l 47 347 q 86 213 53 276 q 170 100 119 149 q 283 23 221 51 q 411 -6 346 -6 m -6 1154 l -6 954 l 904 954 l 904 1154 l -6 1154 m -6 -160 l -6 -360 l 903 -360 l 903 -160 l -6 -160 m 660 303 l 660 236 q 642 200 660 214 q 598 179 625 186 q 537 169 571 172 q 471 167 503 167 l 449 167 q 399 178 425 167 q 347 208 372 189 q 301 251 322 226 q 264 303 279 275 l 660 303 "},"7":{"ha":899,"x_min":-6,"x_max":908,"o":"m 86 0 l 86 260 q 122 385 86 339 q 213 454 157 431 q 340 485 269 478 q 483 492 411 492 q 619 502 576 492 q 661 558 661 513 l 661 628 l 50 628 l 50 794 l 851 794 l 851 535 q 816 410 851 456 q 724 340 781 364 q 597 310 668 317 q 456 303 526 303 q 319 292 363 303 q 276 236 276 281 l 276 0 l 86 0 m -6 -160 l 908 -160 l 908 -360 l -6 -360 l -6 -160 m -6 1154 l 908 1154 l 908 954 l -6 954 l -6 1154 "},"8":{"ha":899,"x_min":-6,"x_max":907,"o":"m 472 167 q 538 169 504 167 q 599 180 572 172 q 644 201 626 188 q 661 236 661 214 q 646 273 661 260 q 601 293 631 286 q 532 301 572 300 q 442 303 492 303 q 294 292 349 303 q 239 236 239 281 q 256 197 239 211 q 299 176 272 183 q 358 168 325 169 q 425 167 392 167 l 472 167 m 239 558 q 285 504 239 515 q 414 492 331 493 l 486 492 q 614 504 567 493 q 661 558 661 515 q 644 594 661 581 q 599 615 626 607 q 538 625 572 622 q 472 628 504 628 l 431 628 q 363 626 397 628 q 301 618 329 625 q 256 597 274 611 q 239 558 239 583 m 907 954 l -6 954 l -6 1154 l 907 1154 l 907 954 m 907 -360 l -6 -360 l -6 -160 l 907 -160 l 907 -360 m 464 794 q 597 789 528 794 q 722 758 665 783 q 815 681 779 733 q 851 535 851 628 q 843 484 851 506 q 822 446 835 463 q 792 417 808 429 q 761 397 776 406 q 795 372 779 385 q 824 344 811 360 q 844 308 836 328 q 851 260 851 288 q 820 121 851 172 q 739 42 789 69 q 626 8 689 15 q 503 0 564 0 l 436 0 q 303 6 371 0 q 178 36 235 11 q 85 113 121 61 q 49 260 49 165 q 56 308 49 288 q 76 344 64 328 q 105 372 89 360 q 139 397 121 385 q 108 417 124 406 q 78 446 92 429 q 57 484 65 463 q 49 535 49 506 q 79 671 49 619 q 158 750 110 722 q 267 786 207 778 q 389 794 328 794 l 464 794 "},"9":{"ha":865,"x_min":-6,"x_max":874,"o":"m 874 954 l -6 954 l -6 1154 l 874 1154 l 874 954 m 872 -360 l -6 -360 l -6 -160 l 872 -160 l 872 -360 m 819 794 l 819 0 l 631 0 l 631 628 l 469 628 q 397 624 436 628 q 323 608 357 619 q 266 578 289 597 q 243 529 243 560 q 303 451 243 472 q 469 429 364 429 l 558 429 l 558 243 l 526 243 q 422 246 476 243 q 315 258 368 249 q 213 285 261 267 q 129 337 165 304 q 72 417 93 369 q 50 535 50 465 q 89 678 50 626 q 187 756 128 729 q 317 788 246 782 q 453 794 388 794 l 819 794 "}," ":{"ha":404,"x_min":-6,"x_max":410,"o":"m -6 -160 l 410 -160 l 410 -360 l -6 -360 l -6 -160 m -6 1154 l 410 1154 l 410 954 l -6 954 l -6 1154 "},"!":{"ha":283,"x_min":-6,"x_max":290,"o":"m 47 242 l 47 794 l 236 794 l 236 242 l 47 242 m -6 -160 l 290 -160 l 290 -360 l -6 -360 l -6 -160 m -6 1154 l 290 1154 l 290 954 l -6 954 l -6 1154 m 47 0 l 47 189 l 236 189 l 236 0 l 47 0 "},"\"":{"ha":524,"x_min":-6,"x_max":531,"o":"m 47 521 l 47 794 l 236 794 l 236 638 q 216 601 236 621 q 167 563 196 581 q 105 533 138 544 q 47 521 72 521 m -6 -160 l 531 -160 l 531 -360 l -6 -360 l -6 -160 m -6 1154 l 531 1154 l 531 954 l -6 954 l -6 1154 m 288 521 l 288 794 l 476 794 l 476 638 q 456 601 476 621 q 407 563 436 581 q 345 533 378 544 q 288 521 313 521 "},"#":{"ha":926,"x_min":-6,"x_max":932,"o":"m 931 -360 l -6 -360 l -6 -160 l 931 -160 l 931 -360 m 932 954 l -6 954 l -6 1154 l 932 1154 l 932 954 m 181 450 l 46 450 l 46 639 l 181 639 l 181 794 l 369 794 l 369 639 l 549 639 l 549 794 l 738 794 l 738 639 l 878 639 l 878 450 l 738 450 l 738 344 l 878 344 l 878 156 l 738 156 l 738 0 l 549 0 l 549 156 l 442 156 l 442 344 l 549 344 l 549 450 l 369 450 l 369 0 l 181 0 l 181 156 l 46 156 l 46 344 l 181 344 l 181 450 "},"$":{"ha":899,"x_min":-6,"x_max":908,"o":"m 354 624 q 272 604 307 618 q 238 558 238 590 q 267 509 238 522 q 354 493 296 496 l 354 624 m 543 169 q 626 190 590 175 q 661 236 661 204 q 631 283 661 269 q 543 301 601 297 l 543 169 m 908 -160 l 908 -360 l -6 -360 l -6 -160 l 908 -160 m 908 1154 l 908 954 l -6 954 l -6 1154 l 908 1154 m 354 0 l 50 0 l 50 167 l 354 167 l 354 306 q 239 322 294 310 q 141 360 183 335 q 73 428 99 386 q 47 535 47 471 q 74 663 47 614 q 143 741 100 713 q 242 780 186 769 q 354 793 297 790 l 354 879 l 543 879 l 543 794 l 849 794 l 849 628 l 543 628 l 543 488 q 658 472 603 483 q 757 434 714 460 q 826 366 800 408 q 851 260 851 324 q 825 131 851 181 q 755 53 799 82 q 656 15 711 25 q 543 1 600 4 l 543 -85 l 354 -85 l 354 0 "},"%":{"ha":1099,"x_min":-7,"x_max":1107,"o":"m 1107 954 l -7 954 l -7 1154 l 1107 1154 l 1107 954 m 1107 -360 l -7 -360 l -7 -160 l 1107 -160 l 1107 -360 m 481 0 l 281 0 l 615 794 l 818 794 l 481 0 m 768 201 q 792 144 768 168 q 847 119 817 119 q 903 142 879 119 q 926 201 926 165 q 903 264 926 240 q 847 288 879 288 q 792 263 817 288 q 768 201 768 238 m 643 201 q 658 280 643 243 q 699 344 672 317 q 764 388 726 372 q 847 404 801 404 q 931 388 893 404 q 996 344 969 372 q 1037 280 1022 317 q 1051 201 1051 243 q 1036 124 1051 161 q 994 60 1021 88 q 929 16 967 32 q 847 0 892 0 q 765 16 803 0 q 701 60 728 32 q 658 124 674 88 q 643 201 643 161 m 172 592 q 197 534 172 558 q 251 510 221 510 q 307 533 283 510 q 331 592 331 556 q 307 654 331 631 q 251 678 283 678 q 197 653 221 678 q 172 592 172 628 m 47 592 q 62 670 47 633 q 103 735 76 707 q 168 778 131 763 q 251 794 206 794 q 335 778 297 794 q 400 735 374 763 q 441 670 426 707 q 456 592 456 633 q 440 515 456 551 q 398 450 425 478 q 333 406 371 422 q 251 390 296 390 q 169 406 207 390 q 105 450 132 422 q 63 515 78 478 q 47 592 47 551 "},"&":{"ha":942,"x_min":-6,"x_max":949,"o":"m 464 167 q 528 169 496 167 q 587 180 561 172 q 628 201 613 188 q 644 236 644 214 q 630 273 644 260 q 588 293 615 286 q 522 301 561 300 q 433 303 483 303 q 290 292 340 303 q 239 236 239 281 q 260 197 239 211 q 313 176 281 183 q 383 168 346 169 q 454 167 421 167 l 464 167 m -6 -160 l 949 -160 l 949 -360 l -6 -360 l -6 -160 m -6 1154 l 949 1154 l 949 954 l -6 954 l -6 1154 m 890 303 l 828 303 q 833 277 831 288 q 835 260 835 267 q 803 121 835 172 q 722 42 772 69 q 610 8 672 15 q 486 0 547 0 l 428 0 q 296 6 363 0 q 174 36 229 11 q 83 113 118 61 q 49 260 49 165 q 56 308 49 288 q 76 344 64 328 q 105 372 89 360 q 139 397 121 385 q 108 417 124 406 q 78 446 92 429 q 57 484 65 463 q 49 535 49 506 q 78 671 49 619 q 153 750 107 722 q 260 786 200 778 q 381 794 319 794 l 800 794 l 800 628 l 454 628 q 383 626 421 628 q 313 618 346 625 q 260 597 281 611 q 239 558 239 583 q 281 503 239 515 q 406 492 322 492 l 890 492 l 890 303 "},"'":{"ha":283,"x_min":-6,"x_max":290,"o":"m 47 521 l 47 794 l 236 794 l 236 638 q 216 601 236 621 q 167 563 196 581 q 105 533 138 544 q 47 521 72 521 m -6 -160 l 289 -160 l 289 -360 l -6 -360 l -6 -160 m -6 1154 l 290 1154 l 290 954 l -6 954 l -6 1154 "},"(":{"ha":468,"x_min":47,"x_max":475,"o":"m 446 -360 q 313 -329 381 -360 q 188 -249 244 -299 q 92 -133 131 -199 q 47 4 53 -67 l 47 807 q 92 941 53 878 q 188 1051 131 1004 q 313 1126 244 1099 q 446 1154 381 1154 l 475 1154 l 475 954 l 449 954 q 378 934 415 954 q 310 882 342 914 q 257 811 278 850 q 236 735 236 772 l 236 63 q 257 -15 236 25 q 310 -86 278 -54 q 378 -139 342 -118 q 449 -160 415 -160 l 475 -160 l 475 -360 l 446 -360 "},")":{"ha":468,"x_min":-7,"x_max":421,"o":"m -7 -360 l -7 -160 l 19 -160 q 90 -139 53 -160 q 158 -86 126 -118 q 211 -15 190 -54 q 232 63 232 25 l 232 735 q 211 811 232 772 q 158 882 190 850 q 90 934 126 914 q 19 954 53 954 l -7 954 l -7 1154 l 22 1154 q 155 1126 86 1154 q 281 1051 224 1099 q 376 941 338 1004 q 421 807 415 878 l 421 4 q 376 -133 415 -67 q 281 -249 338 -199 q 155 -329 224 -299 q 22 -360 86 -360 l -7 -360 "},"*":{"ha":379,"x_min":-6,"x_max":388,"o":"m 183 678 l 153 628 l 71 683 l 117 729 l 47 743 l 75 822 l 138 792 l 126 856 l 238 856 l 235 792 l 293 819 l 332 743 l 254 729 l 299 681 l 219 628 l 183 678 m -6 -160 l 388 -160 l 388 -360 l -6 -360 l -6 -160 m -6 1154 l 388 1154 l 388 954 l -6 954 l -6 1154 "},"+":{"ha":607,"x_min":-6,"x_max":615,"o":"m 614 -160 l 614 -360 l -6 -360 l -6 -160 l 614 -160 m 615 1154 l 615 954 l -6 954 l -6 1154 l 615 1154 m 210 142 l 210 303 l 46 303 l 46 492 l 210 492 l 210 656 l 399 656 l 399 492 l 560 492 l 560 303 l 399 303 l 399 142 l 210 142 "},",":{"ha":283,"x_min":-6,"x_max":289,"o":"m 47 -85 l 47 189 l 236 189 l 236 32 q 216 -5 236 15 q 167 -43 196 -25 q 105 -73 138 -61 q 47 -85 72 -85 m -6 -160 l 289 -160 l 289 -360 l -6 -360 l -6 -160 m -6 1154 l 289 1154 l 289 954 l -6 954 l -6 1154 "},"-":{"ha":460,"x_min":-6,"x_max":465,"o":"m 413 492 l 413 303 l 46 303 l 46 492 l 413 492 m -6 -160 l 465 -160 l 465 -360 l -6 -360 l -6 -160 m -6 1154 l 465 1154 l 465 954 l -6 954 l -6 1154 "},".":{"ha":283,"x_min":-6,"x_max":289,"o":"m 47 0 l 47 189 l 236 189 l 236 0 l 47 0 m -6 -160 l 289 -160 l 289 -360 l -6 -360 l -6 -160 m -6 1154 l 289 1154 l 289 954 l -6 954 l -6 1154 "},"/":{"ha":632,"x_min":-6,"x_max":638,"o":"m 638 954 l -6 954 l -6 1154 l 638 1154 l 638 954 m 638 -360 l -6 -360 l -6 -160 l 638 -160 l 638 -360 m 247 0 l 47 0 l 382 794 l 585 794 l 247 0 "},":":{"ha":283,"x_min":-6,"x_max":289,"o":"m 47 0 l 47 189 l 236 189 l 236 0 l 47 0 m -6 -160 l 289 -160 l 289 -360 l -6 -360 l -6 -160 m -6 1154 l 289 1154 l 289 954 l -6 954 l -6 1154 m 47 383 l 47 572 l 236 572 l 236 383 l 47 383 "},";":{"ha":283,"x_min":-6,"x_max":289,"o":"m -6 -160 l 289 -160 l 289 -360 l -6 -360 l -6 -160 m -6 1154 l 289 1154 l 289 954 l -6 954 l -6 1154 m 47 383 l 47 572 l 236 572 l 236 383 l 47 383 m 47 -85 l 47 189 l 236 189 l 236 32 q 216 -5 236 15 q 167 -43 196 -25 q 105 -73 138 -61 q 47 -85 72 -85 "},"<":{"ha":606,"x_min":32,"x_max":611,"o":"m 32 396 l 399 1154 l 611 1154 l 611 954 l 511 954 l 242 397 l 511 -160 l 611 -160 l 611 -360 l 399 -360 l 32 396 "},"=":{"ha":493,"x_min":-6,"x_max":501,"o":"m 447 358 l 447 169 l 46 169 l 46 358 l 447 358 m -6 -160 l 500 -160 l 500 -360 l -6 -360 l -6 -160 m -6 1154 l 501 1154 l 501 954 l -6 954 l -6 1154 m 447 625 l 447 436 l 46 436 l 46 625 l 447 625 "},">":{"ha":606,"x_min":-6,"x_max":574,"o":"m 574 396 l 207 1154 l -6 1154 l -6 954 l 94 954 l 364 397 l 94 -160 l -6 -160 l -6 -360 l 207 -360 l 574 396 "},"?":{"ha":896,"x_min":-7,"x_max":904,"o":"m 904 954 l -7 954 l -7 1154 l 904 1154 l 904 954 m 904 -360 l -7 -360 l -7 -160 l 904 -160 l 904 -360 m 86 242 l 86 260 q 122 385 86 339 q 216 454 158 431 q 345 485 274 478 q 489 492 417 492 q 622 502 582 492 q 663 558 663 513 q 640 597 663 583 q 584 618 618 611 q 511 626 550 625 q 439 628 472 628 l 51 628 l 51 794 l 465 794 q 598 789 529 794 q 724 758 667 783 q 817 681 781 733 q 853 535 853 628 q 818 410 853 456 q 728 340 783 364 q 602 310 672 317 q 461 303 532 303 q 322 291 368 303 q 276 251 276 279 l 276 242 l 86 242 m 86 0 l 86 189 l 275 189 l 275 0 l 86 0 "},"@":{"ha":1468,"x_min":-6,"x_max":1476,"o":"m 508 396 q 528 306 508 349 q 578 233 547 264 q 650 183 610 201 q 733 164 690 164 q 817 181 776 164 q 888 229 857 199 q 937 303 918 260 q 956 396 956 346 q 937 491 956 447 q 888 566 918 535 q 817 615 857 597 q 733 632 776 632 q 650 613 690 632 q 578 561 610 593 q 528 486 547 529 q 508 396 508 443 m 1476 1154 l 1476 954 l 1368 954 q 1404 883 1390 919 q 1421 807 1418 846 l 1421 357 q 1376 220 1415 286 q 1281 104 1338 154 q 1155 24 1224 54 q 1022 -7 1086 -7 l 733 -7 q 568 25 643 -7 q 439 113 493 57 q 355 241 385 168 q 325 396 325 314 q 354 551 325 478 q 437 681 383 625 q 566 769 490 736 q 733 801 642 801 q 900 769 825 801 q 1029 681 975 736 q 1113 551 1083 625 q 1142 396 1142 478 q 1103 221 1142 297 q 1153 250 1129 229 q 1194 299 1176 271 q 1222 357 1211 326 q 1232 415 1232 388 l 1232 735 q 1212 809 1232 771 q 1161 878 1192 847 q 1094 931 1131 910 q 1026 954 1058 951 l 449 954 q 378 934 415 954 q 310 882 342 914 q 257 811 278 850 q 236 735 236 772 l 236 63 q 257 -15 236 25 q 310 -86 278 -54 q 378 -139 342 -118 q 449 -160 415 -160 l 1476 -160 l 1476 -360 l -6 -360 l -6 -160 l 108 -160 q 67 -80 83 -121 q 47 4 50 -39 l 47 807 q 64 883 50 846 q 100 954 78 919 l -6 954 l -6 1154 l 1476 1154 m 638 303 l 638 492 l 826 492 l 826 303 l 638 303 "},"A":{"ha":896,"x_min":-6,"x_max":901,"o":"m 849 794 l 849 0 l 660 0 l 660 628 l 449 628 q 378 617 415 628 q 311 587 342 607 q 260 538 281 567 q 236 471 239 508 l 236 431 l 588 431 l 588 242 l 236 242 l 236 0 l 47 0 l 47 510 q 92 634 53 581 q 188 723 131 688 q 313 776 244 758 q 446 794 381 794 l 849 794 m -6 -160 l 901 -160 l 901 -360 l -6 -360 l -6 -160 m -6 1154 l 901 1154 l 901 954 l -6 954 l -6 1154 "},"B":{"ha":899,"x_min":-6,"x_max":907,"o":"m 236 167 l 438 167 q 510 168 471 167 q 583 176 549 169 q 639 197 617 183 q 661 236 661 211 q 646 273 661 260 q 601 293 631 286 q 532 301 572 300 q 442 303 492 303 l 308 303 l 308 492 l 438 492 q 530 493 489 492 q 600 501 571 494 q 645 521 629 507 q 661 558 661 535 q 639 597 661 583 q 583 618 617 611 q 510 626 549 625 q 438 628 471 628 l 236 628 l 236 167 m 464 794 q 597 789 528 794 q 722 758 665 783 q 815 681 779 733 q 851 535 851 628 q 843 484 851 506 q 822 446 835 463 q 792 417 808 429 q 761 397 776 406 q 795 372 779 385 q 824 344 811 360 q 844 308 836 328 q 851 260 851 288 q 815 113 851 165 q 722 36 779 61 q 597 6 665 11 q 464 0 528 0 l 47 0 l 47 794 l 464 794 m -6 -160 l 907 -160 l 907 -360 l -6 -360 l -6 -160 m -6 1154 l 907 1154 l 907 954 l -6 954 l -6 1154 "},"C":{"ha":786,"x_min":-6,"x_max":794,"o":"m 446 0 q 313 28 381 0 q 188 103 244 56 q 92 213 131 150 q 47 347 53 276 l 47 447 q 92 581 53 518 q 188 692 131 644 q 313 767 244 739 q 446 794 381 794 l 739 794 l 739 628 l 449 628 q 378 608 415 628 q 310 556 342 588 q 257 485 278 524 q 236 408 236 446 l 236 389 q 258 312 238 351 q 310 240 279 272 q 378 188 342 208 q 449 167 415 167 l 739 167 l 739 0 l 446 0 m -6 -160 l 793 -160 l 793 -360 l -6 -360 l -6 -160 m -6 1154 l 794 1154 l 794 954 l -6 954 l -6 1154 "},"D":{"ha":896,"x_min":-6,"x_max":901,"o":"m 47 0 l 47 794 l 450 794 q 583 767 514 794 q 708 692 651 739 q 804 581 765 644 q 849 447 843 518 l 849 347 q 804 213 843 276 q 708 103 765 150 q 583 28 651 56 q 450 0 514 0 l 308 0 l 308 167 l 447 167 q 517 187 481 167 q 585 239 554 207 q 636 310 615 271 q 660 386 657 349 l 660 408 q 636 485 657 446 q 585 556 615 524 q 517 608 554 588 q 447 628 481 628 l 236 628 l 236 0 l 47 0 m -6 -160 l 901 -160 l 901 -360 l -6 -360 l -6 -160 m -6 1154 l 901 1154 l 901 954 l -6 954 l -6 1154 "},"E":{"ha":803,"x_min":-6,"x_max":810,"o":"m 756 0 l 446 0 q 313 28 381 0 q 188 103 244 56 q 92 213 131 150 q 47 347 53 276 l 47 447 q 92 581 53 518 q 188 692 131 644 q 313 767 244 739 q 446 794 381 794 l 756 794 l 756 628 l 449 628 q 378 607 415 628 q 310 554 342 586 q 258 483 279 522 q 236 406 238 443 l 236 386 q 257 310 236 349 q 310 239 278 271 q 378 187 342 207 q 449 167 415 167 l 756 167 l 756 0 m 711 492 l 711 303 l 340 303 l 340 492 l 711 492 m -6 -160 l 810 -160 l 810 -360 l -6 -360 l -6 -160 m -6 1154 l 810 1154 l 810 954 l -6 954 l -6 1154 "},"F":{"ha":786,"x_min":-6,"x_max":793,"o":"m 236 0 l 47 0 l 47 447 q 92 581 53 518 q 188 692 131 644 q 313 767 244 739 q 446 794 381 794 l 739 794 l 739 628 l 449 628 q 378 609 415 628 q 310 559 342 590 q 257 488 278 528 q 236 408 236 449 l 236 0 m 694 492 l 694 303 l 340 303 l 340 492 l 694 492 m -6 -160 l 790 -160 l 790 -360 l -6 -360 l -6 -160 m -6 1154 l 793 1154 l 793 954 l -6 954 l -6 1154 "},"G":{"ha":897,"x_min":-6,"x_max":904,"o":"m 411 -6 q 283 23 346 -6 q 170 100 221 51 q 86 213 119 149 q 47 347 53 276 l 47 447 q 92 581 53 518 q 188 692 131 644 q 313 767 244 739 q 446 794 381 794 l 849 794 l 849 628 l 449 628 q 378 608 415 628 q 310 556 342 588 q 257 485 278 524 q 236 408 236 446 l 236 389 q 258 312 238 351 q 310 240 279 272 q 378 188 342 208 q 449 167 415 167 l 471 167 q 537 169 503 167 q 598 179 571 172 q 642 200 625 186 q 660 236 660 214 l 660 303 l 450 303 l 450 492 l 850 492 l 850 260 q 810 113 850 165 q 709 33 769 60 q 576 1 649 7 q 439 -6 503 -6 l 411 -6 m -6 -160 l 903 -160 l 903 -360 l -6 -360 l -6 -160 m -6 1154 l 904 1154 l 904 954 l -6 954 l -6 1154 "},"H":{"ha":896,"x_min":-6,"x_max":904,"o":"m 660 0 l 660 242 l 308 242 l 308 431 l 660 431 l 660 794 l 849 794 l 849 0 l 660 0 m 47 0 l 47 794 l 236 794 l 236 0 l 47 0 m -6 -160 l 904 -160 l 904 -360 l -6 -360 l -6 -160 m -6 1154 l 904 1154 l 904 954 l -6 954 l -6 1154 "},"I":{"ha":283,"x_min":-6,"x_max":290,"o":"m 47 0 l 47 794 l 236 794 l 236 0 l 47 0 m -6 -160 l 290 -160 l 290 -360 l -6 -360 l -6 -160 m -6 1154 l 290 1154 l 290 954 l -6 954 l -6 1154 "},"J":{"ha":896,"x_min":-6,"x_max":901,"o":"m -6 954 l 901 954 l 901 1154 l -6 1154 l -6 954 m -6 -360 l 901 -360 l 901 -160 l -6 -160 l -6 -360 m 450 -6 q 583 13 514 -6 q 708 66 651 31 q 804 155 765 101 q 849 279 843 208 l 849 794 l 660 794 l 660 318 q 636 251 657 281 q 585 202 615 222 q 517 172 554 182 q 447 161 481 161 q 315 196 372 161 q 236 297 257 231 l 236 397 l 47 397 l 47 278 q 90 157 53 210 q 183 68 126 104 q 309 13 239 32 q 450 -6 379 -6 "},"K":{"ha":899,"x_min":-6,"x_max":907,"o":"m 47 0 l 47 794 l 236 794 l 236 0 l 47 0 m 665 0 l 665 100 q 650 142 661 117 q 622 189 639 167 q 582 227 604 211 q 533 243 560 243 l 313 243 l 313 429 l 436 429 q 601 451 542 429 q 661 529 661 472 l 661 794 l 851 794 l 851 535 q 822 408 851 453 q 744 332 793 364 q 822 238 793 296 q 851 128 851 181 l 851 0 l 665 0 m -6 -160 l 907 -160 l 907 -360 l -6 -360 l -6 -160 m -6 1154 l 907 1154 l 907 954 l -6 954 l -6 1154 "},"L":{"ha":693,"x_min":-6,"x_max":700,"o":"m -6 -160 l 700 -160 l 700 -360 l -6 -360 l -6 -160 m -6 1154 l 700 1154 l 700 954 l -6 954 l -6 1154 m 47 794 l 236 794 l 236 167 l 646 167 l 646 0 l 47 0 l 47 794 "},"M":{"ha":1231,"x_min":-6,"x_max":1236,"o":"m 376 800 q 617 719 528 800 q 722 780 661 760 q 850 800 782 800 q 980 781 921 800 q 1082 727 1039 763 q 1151 638 1125 692 q 1183 517 1178 585 l 1183 0 l 994 0 l 994 497 q 961 599 994 564 q 853 633 928 633 q 750 592 786 633 q 710 476 714 551 l 710 0 l 521 0 l 521 479 q 509 540 518 511 q 483 589 500 568 q 441 622 467 610 q 379 633 415 633 q 276 592 313 633 q 236 476 240 551 l 236 0 l 47 0 l 47 515 q 81 640 53 586 q 153 728 108 693 q 254 782 197 764 q 376 800 311 800 m -6 -160 l 1236 -160 l 1236 -360 l -6 -360 l -6 -160 m -6 1154 l 1236 1154 l 1236 954 l -6 954 l -6 1154 "},"N":{"ha":896,"x_min":-6,"x_max":904,"o":"m 450 800 q 583 782 514 800 q 708 728 651 764 q 804 640 765 693 q 849 515 843 586 l 849 0 l 660 0 l 660 476 q 636 543 657 514 q 585 592 615 572 q 517 623 554 613 q 447 633 481 633 l 236 633 l 236 0 l 47 0 l 47 800 l 450 800 m -6 -160 l 904 -160 l 904 -360 l -6 -360 l -6 -160 m -6 1154 l 904 1154 l 904 954 l -6 954 l -6 1154 "},"O":{"ha":908,"x_min":-6,"x_max":915,"o":"m -6 -160 l 914 -160 l 914 -360 l -6 -360 l -6 -160 m -6 1154 l 915 1154 l 915 954 l -6 954 l -6 1154 m 226 396 q 246 306 226 349 q 297 233 265 264 q 370 183 329 201 q 454 164 411 164 q 538 181 497 164 q 610 229 579 199 q 660 303 642 260 q 679 396 679 346 q 660 491 679 447 q 610 566 642 535 q 538 615 579 597 q 454 632 497 632 q 370 613 411 632 q 297 561 329 593 q 246 486 265 529 q 226 396 226 443 m 42 396 q 72 551 42 478 q 156 681 101 625 q 286 769 210 736 q 454 801 363 801 q 622 769 546 801 q 752 681 697 736 q 837 551 807 625 q 867 396 867 478 q 835 241 867 314 q 749 113 804 168 q 619 25 694 57 q 454 -7 543 -7 q 293 25 368 -7 q 163 113 218 57 q 74 241 107 168 q 42 396 42 314 "},"P":{"ha":899,"x_min":-6,"x_max":907,"o":"m 449 794 q 584 788 513 794 q 715 756 656 782 q 813 678 774 729 q 851 535 851 626 q 830 418 851 467 q 773 337 808 369 q 690 285 738 304 q 590 258 642 267 q 483 246 538 249 q 379 243 429 243 l 308 243 l 308 429 l 432 429 q 598 451 538 429 q 658 529 658 472 q 635 578 658 560 q 578 608 613 597 q 505 624 544 619 q 432 628 465 628 l 236 628 l 236 0 l 47 0 l 47 794 l 449 794 m -6 -160 l 906 -160 l 906 -360 l -6 -360 l -6 -160 m -6 1154 l 907 1154 l 907 954 l -6 954 l -6 1154 "},"Q":{"ha":908,"x_min":-6,"x_max":915,"o":"m 226 396 q 265 272 226 328 q 360 188 304 215 l 360 338 l 549 338 l 549 186 q 641 269 603 214 q 679 396 679 324 q 660 491 679 447 q 610 566 642 535 q 538 615 579 597 q 454 632 497 632 q 370 613 411 632 q 297 561 329 593 q 246 486 265 529 q 226 396 226 443 m 43 396 q 73 551 43 478 q 157 681 103 625 q 287 769 211 736 q 454 801 363 801 q 622 769 546 801 q 751 681 697 736 q 835 551 806 625 q 865 396 865 478 q 842 262 865 326 q 776 144 818 197 q 676 55 735 92 q 549 3 618 18 l 549 -104 l 360 -104 l 360 3 q 231 55 289 18 q 131 144 172 92 q 66 260 89 196 q 43 396 43 325 m -6 -160 l 914 -160 l 914 -360 l -6 -360 l -6 -160 m -6 1154 l 915 1154 l 915 954 l -6 954 l -6 1154 "},"R":{"ha":897,"x_min":-6,"x_max":904,"o":"m -6 -160 l 904 -160 l 904 -360 l -6 -360 l -6 -160 m -6 1154 l 904 1154 l 904 954 l -6 954 l -6 1154 m 661 0 l 661 100 q 646 142 657 117 q 617 189 635 167 q 578 227 600 211 q 529 243 556 243 l 308 243 l 308 429 l 432 429 q 597 451 538 429 q 657 529 657 472 q 634 578 657 560 q 578 608 611 597 q 505 624 544 619 q 432 628 465 628 l 236 628 l 236 0 l 47 0 l 47 794 l 449 794 q 583 788 513 794 q 714 756 654 782 q 812 678 774 729 q 850 535 850 626 q 821 408 850 453 q 743 332 792 364 q 821 238 792 296 q 850 128 850 181 l 850 0 l 661 0 "},"S":{"ha":886,"x_min":-6,"x_max":892,"o":"m 453 0 l 51 0 l 51 167 l 426 167 q 497 168 460 167 q 566 176 535 169 q 618 197 597 183 q 639 236 639 211 q 592 292 639 281 q 451 303 544 303 q 308 310 381 303 q 178 340 236 317 q 83 410 119 364 q 47 535 47 456 q 82 681 47 628 q 171 758 117 733 q 292 789 225 783 q 424 794 358 794 l 825 794 l 825 628 l 450 628 q 379 626 417 628 q 310 618 342 625 q 258 597 279 611 q 238 558 238 583 q 284 502 238 513 q 424 492 331 492 q 568 485 496 492 q 699 454 640 478 q 793 385 757 431 q 829 260 829 339 q 794 113 829 165 q 706 36 760 61 q 584 6 651 11 q 453 0 517 0 m -6 -160 l 892 -160 l 892 -360 l -6 -360 l -6 -160 m -6 1154 l 892 1154 l 892 954 l -6 954 l -6 1154 "},"T":{"ha":835,"x_min":-6,"x_max":843,"o":"m -6 -160 l 842 -160 l 842 -360 l -6 -360 l -6 -160 m -6 1154 l 843 1154 l 843 954 l -6 954 l -6 1154 m 788 794 l 788 628 l 511 628 l 511 0 l 321 0 l 321 628 l 47 628 l 47 794 l 788 794 "},"U":{"ha":896,"x_min":-6,"x_max":901,"o":"m 450 -6 q 309 13 379 -6 q 183 68 239 32 q 90 157 126 104 q 47 278 53 210 l 47 794 l 236 794 l 236 297 q 315 196 257 231 q 447 161 372 161 q 517 172 481 161 q 585 202 554 182 q 636 251 615 222 q 660 318 657 281 l 660 794 l 849 794 l 849 279 q 804 155 843 208 q 708 66 765 101 q 583 13 651 31 q 450 -6 514 -6 m -6 -160 l 901 -160 l 901 -360 l -6 -360 l -6 -160 m -6 1154 l 901 1154 l 901 954 l -6 954 l -6 1154 "},"V":{"ha":896,"x_min":-6,"x_max":901,"o":"m 47 794 l 236 794 l 236 411 q 449 189 318 306 q 554 286 501 232 q 660 411 607 340 l 660 794 l 849 794 l 849 353 q 689 169 776 264 q 497 0 601 75 l 397 0 q 213 163 307 75 q 47 353 118 251 l 47 794 m -6 -160 l 901 -160 l 901 -360 l -6 -360 l -6 -160 m -6 1154 l 901 1154 l 901 954 l -6 954 l -6 1154 "},"W":{"ha":1231,"x_min":-6,"x_max":1236,"o":"m 854 -6 q 614 75 703 -6 q 509 15 569 35 q 381 -6 449 -6 q 251 13 310 -6 q 149 67 192 32 q 79 156 106 103 q 47 278 53 208 l 47 794 l 236 794 l 236 297 q 269 196 236 231 q 378 161 303 161 q 481 202 444 161 q 521 318 517 243 l 521 794 l 710 794 l 710 315 q 722 255 713 283 q 747 206 731 226 q 790 173 764 185 q 851 161 815 161 q 954 202 918 161 q 994 318 990 243 l 994 794 l 1183 794 l 1183 279 q 1150 155 1178 208 q 1078 66 1122 101 q 976 13 1033 31 q 854 -6 918 -6 m -6 -160 l 1236 -160 l 1236 -360 l -6 -360 l -6 -160 m -6 1154 l 1236 1154 l 1236 954 l -6 954 l -6 1154 "},"X":{"ha":899,"x_min":-6,"x_max":907,"o":"m 665 100 q 649 142 661 117 q 620 189 638 167 q 580 227 603 211 q 531 243 557 243 l 363 243 q 315 224 338 240 q 276 186 293 208 q 249 140 260 164 q 233 100 238 117 l 233 0 l 47 0 l 47 128 q 76 238 47 181 q 154 332 106 296 q 76 408 106 364 q 47 535 47 453 l 47 794 l 238 794 l 238 529 q 295 451 238 472 q 454 431 353 431 q 606 452 550 431 q 661 529 661 474 l 661 794 l 851 794 l 851 535 q 822 408 851 453 q 744 332 793 364 q 822 238 793 296 q 851 128 851 181 l 851 0 l 665 0 l 665 100 m -6 -160 l 907 -160 l 907 -360 l -6 -360 l -6 -160 m -6 1154 l 907 1154 l 907 954 l -6 954 l -6 1154 "},"Y":{"ha":896,"x_min":-6,"x_max":903,"o":"m 353 0 l 353 239 q 241 273 294 250 q 146 331 188 296 q 78 411 104 365 q 47 514 51 457 l 47 794 l 236 794 l 236 533 q 315 432 257 467 q 447 397 372 397 q 517 408 481 397 q 585 438 554 418 q 636 488 615 458 q 660 554 657 517 l 660 794 l 849 794 l 849 515 q 817 410 844 457 q 746 328 789 363 q 650 271 703 293 q 542 239 597 249 l 542 0 l 353 0 m -4 -160 l 901 -160 l 901 -360 l -4 -360 l -4 -160 m -6 1154 l 903 1154 l 903 954 l -6 954 l -6 1154 "},"Z":{"ha":886,"x_min":-6,"x_max":892,"o":"m 49 0 l 49 260 q 85 385 49 339 q 181 454 122 431 q 312 485 239 478 q 457 492 385 492 q 598 502 550 492 q 646 558 646 513 l 646 628 l 51 628 l 51 794 l 836 794 l 836 535 q 799 410 836 456 q 704 340 763 364 q 573 310 646 317 q 429 303 500 303 q 288 292 336 303 q 239 236 239 281 l 239 167 l 833 167 l 833 0 l 49 0 m -6 -160 l 890 -160 l 890 -360 l -6 -360 l -6 -160 m -6 1154 l 892 1154 l 892 954 l -6 954 l -6 1154 "},"[":{"ha":468,"x_min":47,"x_max":475,"o":"m 47 -360 l 47 1154 l 475 1154 l 475 954 l 236 954 l 236 -160 l 475 -160 l 475 -360 l 47 -360 "},"\\":{"ha":632,"x_min":-6,"x_max":638,"o":"m 47 794 l 250 794 l 585 0 l 385 0 l 47 794 m -6 -160 l 638 -160 l 638 -360 l -6 -360 l -6 -160 m -6 1154 l 638 1154 l 638 954 l -6 954 l -6 1154 "},"]":{"ha":469,"x_min":-6,"x_max":422,"o":"m 422 -360 l 422 1154 l -6 1154 l -6 954 l 233 954 l 233 -160 l -6 -160 l -6 -360 l 422 -360 "},"^":{"ha":896,"x_min":-6,"x_max":901,"o":"m 450 794 q 583 776 514 794 q 708 723 651 758 q 804 634 765 688 q 849 510 843 581 l 849 0 l 660 0 l 660 242 l 308 242 l 308 431 l 660 431 l 660 471 q 636 538 657 508 q 585 587 615 567 q 517 617 554 607 q 447 628 481 628 l 236 628 l 236 0 l 47 0 l 47 794 l 450 794 m -6 -160 l 901 -160 l 901 -360 l -6 -360 l -6 -160 m -6 1154 l 901 1154 l 901 954 l -6 954 l -6 1154 "},"_":{"ha":407,"x_min":0,"x_max":0,"o":""},"`":{"ha":517,"x_min":-6,"x_max":522,"o":"m 522 -160 l 522 -360 l -6 -360 l -6 -160 l 522 -160 m 522 954 l 385 954 l 294 1103 l 99 1103 l 214 954 l -6 954 l -6 1154 l 522 1154 l 522 954 "},"a":{"ha":896,"x_min":-6,"x_max":903,"o":"m 450 800 q 583 782 514 800 q 708 728 651 764 q 804 640 765 693 q 849 515 843 586 l 849 0 l 660 0 l 660 242 l 308 242 l 308 431 l 660 431 l 660 476 q 636 543 657 514 q 585 592 615 572 q 517 623 554 613 q 447 633 481 633 q 315 599 372 633 q 236 497 257 564 l 236 0 l 47 0 l 47 517 q 90 638 53 585 q 183 726 126 690 q 309 781 239 763 q 450 800 379 800 m -6 -160 l 903 -160 l 903 -360 l -6 -360 l -6 -160 m -6 1154 l 903 1154 l 903 954 l -6 954 l -6 1154 "},"b":{"ha":899,"x_min":-6,"x_max":907,"o":"m 236 167 l 438 167 q 510 168 471 167 q 583 176 549 169 q 639 197 617 183 q 661 236 661 211 q 646 273 661 260 q 601 293 631 286 q 532 301 572 300 q 442 303 492 303 l 308 303 l 308 492 l 438 492 q 530 493 489 492 q 600 501 571 494 q 645 521 629 507 q 661 558 661 535 q 639 597 661 583 q 583 618 617 611 q 510 626 549 625 q 438 628 471 628 l 236 628 l 236 167 m 464 794 q 597 789 528 794 q 722 758 665 783 q 815 681 779 733 q 851 535 851 628 q 843 484 851 506 q 822 446 835 463 q 792 417 808 429 q 761 397 776 406 q 795 372 779 385 q 824 344 811 360 q 844 308 836 328 q 851 260 851 288 q 815 113 851 165 q 722 36 779 61 q 597 6 665 11 q 464 0 528 0 l 47 0 l 47 794 l 464 794 m -6 -160 l 907 -160 l 907 -360 l -6 -360 l -6 -160 m -6 1154 l 907 1154 l 907 954 l -6 954 l -6 1154 "},"c":{"ha":786,"x_min":-6,"x_max":794,"o":"m 446 0 q 313 28 381 0 q 188 103 244 56 q 92 213 131 150 q 47 347 53 276 l 47 447 q 92 581 53 518 q 188 692 131 644 q 313 767 244 739 q 446 794 381 794 l 739 794 l 739 628 l 449 628 q 378 608 415 628 q 310 556 342 588 q 257 485 278 524 q 236 408 236 446 l 236 389 q 258 312 238 351 q 310 240 279 272 q 378 188 342 208 q 449 167 415 167 l 739 167 l 739 0 l 446 0 m -6 -160 l 793 -160 l 793 -360 l -6 -360 l -6 -160 m -6 1154 l 794 1154 l 794 954 l -6 954 l -6 1154 "},"d":{"ha":896,"x_min":-6,"x_max":901,"o":"m 47 0 l 47 794 l 450 794 q 583 767 514 794 q 708 692 651 739 q 804 581 765 644 q 849 447 843 518 l 849 347 q 804 213 843 276 q 708 103 765 150 q 583 28 651 56 q 450 0 514 0 l 308 0 l 308 167 l 447 167 q 517 187 481 167 q 585 239 554 207 q 636 310 615 271 q 660 386 657 349 l 660 408 q 636 485 657 446 q 585 556 615 524 q 517 608 554 588 q 447 628 481 628 l 236 628 l 236 0 l 47 0 m -6 -160 l 901 -160 l 901 -360 l -6 -360 l -6 -160 m -6 1154 l 901 1154 l 901 954 l -6 954 l -6 1154 "},"e":{"ha":803,"x_min":-6,"x_max":810,"o":"m 756 0 l 446 0 q 313 28 381 0 q 188 103 244 56 q 92 213 131 150 q 47 347 53 276 l 47 447 q 92 581 53 518 q 188 692 131 644 q 313 767 244 739 q 446 794 381 794 l 756 794 l 756 628 l 449 628 q 378 607 415 628 q 310 554 342 586 q 258 483 279 522 q 236 406 238 443 l 236 386 q 257 310 236 349 q 310 239 278 271 q 378 187 342 207 q 449 167 415 167 l 756 167 l 756 0 m 711 492 l 711 303 l 340 303 l 340 492 l 711 492 m -6 -160 l 810 -160 l 810 -360 l -6 -360 l -6 -160 m -6 1154 l 810 1154 l 810 954 l -6 954 l -6 1154 "},"f":{"ha":786,"x_min":-6,"x_max":793,"o":"m 236 0 l 47 0 l 47 447 q 92 581 53 518 q 188 692 131 644 q 313 767 244 739 q 446 794 381 794 l 736 794 l 736 628 l 449 628 q 378 609 415 628 q 310 559 342 590 q 257 488 278 528 q 236 408 236 449 l 236 0 m 692 492 l 692 303 l 340 303 l 340 492 l 692 492 m -6 -160 l 793 -160 l 793 -360 l -6 -360 l -6 -160 m -6 1154 l 793 1154 l 793 954 l -6 954 l -6 1154 "},"g":{"ha":897,"x_min":-6,"x_max":904,"o":"m 411 -6 q 283 23 346 -6 q 170 100 221 51 q 86 213 119 149 q 47 347 53 276 l 47 447 q 92 581 53 518 q 188 692 131 644 q 313 767 244 739 q 446 794 381 794 l 849 794 l 849 628 l 449 628 q 378 608 415 628 q 310 556 342 588 q 257 485 278 524 q 236 408 236 446 l 236 389 q 258 312 238 351 q 310 240 279 272 q 378 188 342 208 q 449 167 415 167 l 471 167 q 537 169 503 167 q 598 179 571 172 q 642 200 625 186 q 660 236 660 214 l 660 303 l 450 303 l 450 492 l 850 492 l 850 260 q 810 113 850 165 q 709 33 769 60 q 576 1 649 7 q 439 -6 503 -6 l 411 -6 m -6 -160 l 903 -160 l 903 -360 l -6 -360 l -6 -160 m -6 1154 l 904 1154 l 904 954 l -6 954 l -6 1154 "},"h":{"ha":896,"x_min":-6,"x_max":904,"o":"m 660 0 l 660 242 l 308 242 l 308 431 l 660 431 l 660 794 l 849 794 l 849 0 l 660 0 m 47 0 l 47 794 l 236 794 l 236 0 l 47 0 m -6 -160 l 904 -160 l 904 -360 l -6 -360 l -6 -160 m -6 1154 l 904 1154 l 904 954 l -6 954 l -6 1154 "},"i":{"ha":283,"x_min":-6,"x_max":290,"o":"m 47 0 l 47 794 l 236 794 l 236 0 l 47 0 m -6 -160 l 290 -160 l 290 -360 l -6 -360 l -6 -160 m -6 1154 l 290 1154 l 290 954 l -6 954 l -6 1154 "},"j":{"ha":896,"x_min":-6,"x_max":901,"o":"m -6 954 l 901 954 l 901 1154 l -6 1154 l -6 954 m -6 -360 l 901 -360 l 901 -160 l -6 -160 l -6 -360 m 450 -6 q 583 13 514 -6 q 708 66 651 31 q 804 155 765 101 q 849 279 843 208 l 849 794 l 660 794 l 660 318 q 636 251 657 281 q 585 202 615 222 q 517 172 554 182 q 447 161 481 161 q 315 196 372 161 q 236 297 257 231 l 236 397 l 47 397 l 47 278 q 90 157 53 210 q 183 68 126 104 q 309 13 239 32 q 450 -6 379 -6 "},"k":{"ha":899,"x_min":-6,"x_max":907,"o":"m 47 0 l 47 794 l 236 794 l 236 0 l 47 0 m 665 0 l 665 100 q 650 142 661 117 q 622 189 639 167 q 582 227 604 211 q 533 243 560 243 l 313 243 l 313 429 l 436 429 q 601 451 542 429 q 661 529 661 472 l 661 794 l 851 794 l 851 535 q 822 408 851 453 q 744 332 793 364 q 822 238 793 296 q 851 128 851 181 l 851 0 l 665 0 m -6 -160 l 907 -160 l 907 -360 l -6 -360 l -6 -160 m -6 1154 l 907 1154 l 907 954 l -6 954 l -6 1154 "},"l":{"ha":693,"x_min":-6,"x_max":700,"o":"m 47 794 l 236 794 l 236 167 l 646 167 l 646 0 l 47 0 l 47 794 m -6 -160 l 700 -160 l 700 -360 l -6 -360 l -6 -160 m -6 1154 l 700 1154 l 700 954 l -6 954 l -6 1154 "},"m":{"ha":1231,"x_min":-6,"x_max":1236,"o":"m 376 800 q 617 719 528 800 q 722 780 661 760 q 850 800 782 800 q 980 781 921 800 q 1082 727 1039 763 q 1151 638 1125 692 q 1183 517 1178 585 l 1183 0 l 994 0 l 994 497 q 961 599 994 564 q 853 633 928 633 q 750 592 786 633 q 710 476 714 551 l 710 0 l 521 0 l 521 479 q 509 540 518 511 q 483 589 500 568 q 441 622 467 610 q 379 633 415 633 q 276 592 313 633 q 236 476 240 551 l 236 0 l 47 0 l 47 515 q 81 640 53 586 q 153 728 108 693 q 254 782 197 764 q 376 800 311 800 m -6 -160 l 1236 -160 l 1236 -360 l -6 -360 l -6 -160 m -6 1154 l 1236 1154 l 1236 954 l -6 954 l -6 1154 "},"n":{"ha":896,"x_min":-6,"x_max":904,"o":"m 450 800 q 583 782 514 800 q 708 728 651 764 q 804 640 765 693 q 849 515 843 586 l 849 0 l 660 0 l 660 476 q 636 543 657 514 q 585 592 615 572 q 517 623 554 613 q 447 633 481 633 q 315 599 372 633 q 236 497 257 564 l 236 0 l 47 0 l 47 517 q 90 638 53 585 q 183 726 126 690 q 309 781 239 763 q 450 800 379 800 m -6 -160 l 904 -160 l 904 -360 l -6 -360 l -6 -160 m -6 1154 l 904 1154 l 904 954 l -6 954 l -6 1154 "},"o":{"ha":908,"x_min":-6,"x_max":915,"o":"m 226 396 q 246 306 226 349 q 297 233 265 264 q 370 183 329 201 q 454 164 411 164 q 538 181 497 164 q 610 229 579 199 q 660 303 642 260 q 679 396 679 346 q 660 491 679 447 q 610 566 642 535 q 538 615 579 597 q 454 632 497 632 q 370 613 411 632 q 297 561 329 593 q 246 486 265 529 q 226 396 226 443 m 42 396 q 72 551 42 478 q 156 681 101 625 q 286 769 210 736 q 454 801 363 801 q 622 769 546 801 q 752 681 697 736 q 837 551 807 625 q 867 396 867 478 q 835 241 867 314 q 749 113 804 168 q 619 25 694 57 q 454 -7 543 -7 q 293 25 368 -7 q 163 113 218 57 q 74 241 107 168 q 42 396 42 314 m -6 -160 l 914 -160 l 914 -360 l -6 -360 l -6 -160 m -6 1154 l 915 1154 l 915 954 l -6 954 l -6 1154 "},"p":{"ha":899,"x_min":-6,"x_max":907,"o":"m 449 794 q 584 788 513 794 q 715 756 656 782 q 813 678 774 729 q 851 535 851 626 q 830 418 851 467 q 773 337 808 369 q 690 285 738 304 q 590 258 642 267 q 483 246 538 249 q 379 243 429 243 l 308 243 l 308 429 l 432 429 q 598 451 538 429 q 658 529 658 472 q 635 578 658 560 q 578 608 613 597 q 505 624 544 619 q 432 628 465 628 l 236 628 l 236 0 l 47 0 l 47 794 l 449 794 m -6 -160 l 906 -160 l 906 -360 l -6 -360 l -6 -160 m -6 1154 l 907 1154 l 907 954 l -6 954 l -6 1154 "},"q":{"ha":908,"x_min":-6,"x_max":915,"o":"m 226 396 q 265 272 226 328 q 360 188 304 215 l 360 338 l 549 338 l 549 186 q 641 269 603 214 q 679 396 679 324 q 660 491 679 447 q 610 566 642 535 q 538 615 579 597 q 454 632 497 632 q 370 613 411 632 q 297 561 329 593 q 246 486 265 529 q 226 396 226 443 m 43 396 q 73 551 43 478 q 157 681 103 625 q 287 769 211 736 q 454 801 363 801 q 622 769 546 801 q 751 681 697 736 q 835 551 806 625 q 865 396 865 478 q 842 262 865 326 q 776 144 818 197 q 676 55 735 92 q 549 3 618 18 l 549 -47 l 360 -104 l 360 3 q 231 55 289 18 q 131 144 172 92 q 66 260 89 196 q 43 396 43 325 m -6 -160 l 914 -160 l 914 -360 l -6 -360 l -6 -160 m -6 1154 l 915 1154 l 915 954 l -6 954 l -6 1154 "},"r":{"ha":897,"x_min":-6,"x_max":903,"o":"m -6 -160 l 903 -160 l 903 -360 l -6 -360 l -6 -160 m -6 1154 l 903 1154 l 903 954 l -6 954 l -6 1154 m 661 0 l 661 100 q 646 142 657 117 q 617 189 635 167 q 578 227 600 211 q 529 243 556 243 l 308 243 l 308 429 l 432 429 q 597 451 538 429 q 657 529 657 472 q 634 578 657 560 q 578 608 611 597 q 505 624 544 619 q 432 628 465 628 l 236 628 l 236 0 l 47 0 l 47 794 l 449 794 q 583 788 513 794 q 714 756 654 782 q 812 678 774 729 q 850 535 850 626 q 821 408 850 453 q 743 332 792 364 q 821 238 792 296 q 850 128 850 181 l 850 0 l 661 0 "},"s":{"ha":886,"x_min":-6,"x_max":892,"o":"m 453 0 l 53 0 l 53 167 l 426 167 q 497 168 460 167 q 566 176 535 169 q 618 197 597 183 q 639 236 639 211 q 592 292 639 281 q 451 303 544 303 q 308 310 381 303 q 178 340 236 317 q 83 410 119 364 q 47 535 47 456 q 82 681 47 628 q 171 758 117 733 q 292 789 225 783 q 424 794 358 794 l 824 794 l 824 628 l 450 628 q 379 626 417 628 q 310 618 342 625 q 258 597 279 611 q 238 558 238 583 q 284 502 238 513 q 424 492 331 492 q 568 485 496 492 q 699 454 640 478 q 793 385 757 431 q 829 260 829 339 q 794 113 829 165 q 706 36 760 61 q 584 6 651 11 q 453 0 517 0 m -6 -160 l 892 -160 l 892 -360 l -6 -360 l -6 -160 m -6 1154 l 892 1154 l 892 954 l -6 954 l -6 1154 "},"t":{"ha":829,"x_min":-6,"x_max":838,"o":"m -6 -160 l 836 -160 l 836 -360 l -6 -360 l -6 -160 m -6 1154 l 838 1154 l 838 954 l -6 954 l -6 1154 m 782 794 l 782 628 l 511 628 l 511 0 l 321 0 l 321 628 l 47 628 l 47 794 l 782 794 "},"u":{"ha":896,"x_min":-6,"x_max":901,"o":"m 450 -6 q 309 13 379 -6 q 183 68 239 32 q 90 157 126 104 q 47 278 53 210 l 47 794 l 236 794 l 236 297 q 315 196 257 231 q 447 161 372 161 q 517 172 481 161 q 585 202 554 182 q 636 251 615 222 q 660 318 657 281 l 660 794 l 849 794 l 849 279 q 804 155 843 208 q 708 66 765 101 q 583 13 651 31 q 450 -6 514 -6 m -6 -160 l 901 -160 l 901 -360 l -6 -360 l -6 -160 m -6 1154 l 901 1154 l 901 954 l -6 954 l -6 1154 "},"v":{"ha":896,"x_min":-6,"x_max":901,"o":"m 47 794 l 236 794 l 236 411 q 449 189 318 306 q 554 286 501 232 q 660 411 607 340 l 660 794 l 849 794 l 849 353 q 689 169 776 264 q 497 0 601 75 l 397 0 q 213 163 307 75 q 47 353 118 251 l 47 794 m -6 -160 l 901 -160 l 901 -360 l -6 -360 l -6 -160 m -6 1154 l 901 1154 l 901 954 l -6 954 l -6 1154 "},"w":{"ha":1231,"x_min":-6,"x_max":1236,"o":"m 854 -6 q 614 75 703 -6 q 509 15 569 35 q 381 -6 449 -6 q 251 13 310 -6 q 149 67 192 32 q 79 156 106 103 q 47 278 53 208 l 47 794 l 236 794 l 236 297 q 269 196 236 231 q 378 161 303 161 q 481 202 444 161 q 521 318 517 243 l 521 794 l 710 794 l 710 315 q 722 255 713 283 q 747 206 731 226 q 790 173 764 185 q 851 161 815 161 q 954 202 918 161 q 994 318 990 243 l 994 794 l 1183 794 l 1183 279 q 1150 155 1178 208 q 1078 66 1122 101 q 976 13 1033 31 q 854 -6 918 -6 m -6 -160 l 1236 -160 l 1236 -360 l -6 -360 l -6 -160 m -6 1154 l 1236 1154 l 1236 954 l -6 954 l -6 1154 "},"x":{"ha":899,"x_min":-6,"x_max":907,"o":"m 665 100 q 649 142 661 117 q 620 189 638 167 q 580 227 603 211 q 531 243 557 243 l 363 243 q 315 224 338 240 q 276 186 293 208 q 249 140 260 164 q 233 100 238 117 l 233 0 l 47 0 l 47 128 q 76 238 47 181 q 154 332 106 296 q 76 408 106 364 q 47 535 47 453 l 47 794 l 238 794 l 238 529 q 295 451 238 472 q 454 431 353 431 q 606 452 550 431 q 661 529 661 474 l 661 794 l 851 794 l 851 535 q 822 408 851 453 q 744 332 793 364 q 822 238 793 296 q 851 128 851 181 l 851 0 l 665 0 l 665 100 m -6 -160 l 907 -160 l 907 -360 l -6 -360 l -6 -160 m -6 1154 l 907 1154 l 907 954 l -6 954 l -6 1154 "},"y":{"ha":896,"x_min":-6,"x_max":903,"o":"m 353 0 l 353 239 q 241 273 294 250 q 146 331 188 296 q 78 411 104 365 q 47 514 51 457 l 47 794 l 236 794 l 236 533 q 315 432 257 467 q 447 397 372 397 q 517 408 481 397 q 585 438 554 418 q 636 488 615 458 q 660 554 657 517 l 660 794 l 849 794 l 849 515 q 817 410 844 457 q 746 328 789 363 q 650 271 703 293 q 542 239 597 249 l 542 0 l 353 0 m -4 -160 l 901 -160 l 901 -360 l -4 -360 l -4 -160 m -6 1154 l 903 1154 l 903 954 l -6 954 l -6 1154 "},"z":{"ha":886,"x_min":-6,"x_max":892,"o":"m 49 0 l 49 260 q 85 385 49 339 q 181 454 122 431 q 312 485 239 478 q 457 492 385 492 q 598 502 550 492 q 646 558 646 513 l 646 628 l 51 628 l 51 794 l 836 794 l 836 535 q 799 410 836 456 q 704 340 763 364 q 573 310 646 317 q 429 303 500 303 q 288 292 336 303 q 239 236 239 281 l 239 167 l 833 167 l 833 0 l 49 0 m -6 -160 l 890 -160 l 890 -360 l -6 -360 l -6 -160 m -6 1154 l 892 1154 l 892 954 l -6 954 l -6 1154 "},"{":{"ha":803,"x_min":-6,"x_max":808,"o":"m 442 -160 q 400 -80 417 -121 q 381 4 383 -39 l 381 807 q 397 883 383 846 q 433 954 411 919 l 396 954 q 326 934 363 954 q 257 882 289 914 q 204 811 225 850 q 183 735 183 772 l 183 63 q 204 -15 183 25 q 257 -86 225 -54 q 326 -139 289 -118 q 396 -160 363 -160 l 442 -160 m 393 -360 q 260 -329 328 -360 q 135 -249 192 -299 q 39 -133 78 -199 q -6 4 0 -67 l -6 807 q 39 941 0 878 q 135 1051 78 1004 q 260 1126 192 1099 q 393 1154 328 1154 l 808 1154 l 808 954 l 782 954 q 712 934 749 954 q 643 882 675 914 q 590 811 611 850 q 569 735 569 772 l 569 63 q 590 -15 569 25 q 643 -86 611 -54 q 712 -139 675 -118 q 782 -160 749 -160 l 808 -160 l 808 -360 l 393 -360 "},"|":{"ha":283,"x_min":-6,"x_max":290,"o":"m -6 1154 l -6 954 l 47 954 l 47 -160 l -6 -160 l -6 -360 l 290 -360 l 290 -160 l 236 -160 l 236 954 l 290 954 l 290 1154 l -6 1154 "},"}":{"ha":803,"x_min":-6,"x_max":808,"o":"m 410 -360 l -6 -360 l -6 -160 l 21 -160 q 91 -139 54 -160 q 160 -86 128 -118 q 213 -15 192 -54 q 233 63 233 25 l 233 735 q 213 811 233 772 q 160 882 192 850 q 91 934 128 914 q 21 954 54 954 l -6 954 l -6 1154 l 410 1154 q 542 1126 474 1154 q 668 1051 611 1099 q 764 941 725 1004 q 808 807 803 878 l 808 4 q 764 -133 803 -67 q 668 -249 725 -199 q 542 -329 611 -299 q 410 -360 474 -360 m 361 -160 l 407 -160 q 477 -139 440 -160 q 546 -86 514 -118 q 599 -15 578 -54 q 619 63 619 25 l 619 735 q 599 811 619 772 q 546 882 578 850 q 477 934 514 914 q 407 954 440 954 l 369 954 q 406 883 392 919 q 422 807 419 846 l 422 4 q 403 -80 419 -39 q 361 -160 386 -121 "},"~":{"ha":283,"x_min":-6,"x_max":290,"o":"m 236 794 l 236 606 l 47 606 l 47 794 l 236 794 m -6 -160 l 290 -160 l 290 -360 l -6 -360 l -6 -160 m -6 1154 l 290 1154 l 290 954 l -6 954 l -6 1154 m 236 553 l 236 0 l 47 0 l 47 553 l 236 553 "},"":{"ha":333,"x_min":0,"x_max":0,"o":""},"€":{"ha":893,"x_min":-6,"x_max":901,"o":"m 689 376 l 347 376 q 346 389 346 378 l 346 417 l 689 417 l 689 582 l 449 582 q 504 615 476 603 q 558 628 532 628 l 846 628 l 846 794 l 556 794 q 456 778 507 794 q 358 735 406 763 q 270 667 311 707 q 201 582 229 628 l 47 582 l 47 417 l 157 417 l 157 376 l 47 376 l 47 211 l 203 211 q 271 126 231 165 q 358 59 311 88 q 456 15 406 31 q 556 0 507 0 l 846 0 l 846 167 l 558 167 q 506 178 533 167 q 453 211 479 190 l 689 211 l 689 376 m -6 1154 l -6 954 l 901 954 l 901 1154 l -6 1154 m -6 -160 l -6 -360 l 900 -360 l 900 -160 l -6 -160 "},"‚":{"ha":283,"x_min":-6,"x_max":289,"o":"m 47 -85 l 47 189 l 236 189 l 236 32 q 216 -5 236 15 q 167 -43 196 -25 q 105 -73 138 -61 q 47 -85 72 -85 m -6 -160 l 289 -160 l 289 -360 l -6 -360 l -6 -160 m -6 1154 l 289 1154 l 289 954 l -6 954 l -6 1154 "},"ƒ":{"ha":899,"x_min":-6,"x_max":904,"o":"m -6 1354 l 904 1354 l 904 1154 l -6 1154 l -6 1354 "},"„":{"ha":525,"x_min":-6,"x_max":532,"o":"m 47 -85 l 47 189 l 236 189 l 236 32 q 216 -5 236 15 q 167 -43 196 -25 q 105 -73 138 -61 q 47 -85 72 -85 m -6 -160 l 532 -160 l 532 -360 l -6 -360 l -6 -160 m -6 1154 l 532 1154 l 532 954 l -6 954 l -6 1154 m 289 -85 l 289 189 l 478 189 l 478 32 q 458 -5 478 15 q 408 -43 438 -25 q 347 -73 379 -61 q 289 -85 314 -85 "},"…":{"ha":806,"x_min":-6,"x_max":813,"o":"m 308 0 l 308 189 l 497 189 l 497 0 l 308 0 m -6 -160 l 813 -160 l 813 -360 l -6 -360 l -6 -160 m -6 1154 l 813 1154 l 813 954 l -6 954 l -6 1154 m 569 0 l 569 189 l 758 189 l 758 0 l 569 0 m 47 0 l 47 189 l 236 189 l 236 0 l 47 0 "},"†":{"ha":492,"x_min":-6,"x_max":499,"o":"m 443 625 l 336 625 l 336 794 l 147 794 l 147 625 l 46 625 l 46 436 l 147 436 l 147 0 l 336 0 l 336 436 l 443 436 l 443 625 m -6 1154 l -6 954 l 499 954 l 499 1154 l -6 1154 m -6 -160 l -6 -360 l 497 -360 l 497 -160 l -6 -160 "},"‡":{"ha":492,"x_min":-6,"x_max":499,"o":"m 443 625 l 336 625 l 336 794 l 147 794 l 147 625 l 46 625 l 46 436 l 147 436 l 147 358 l 46 358 l 46 169 l 147 169 l 147 0 l 336 0 l 336 169 l 443 169 l 443 358 l 336 358 l 336 436 l 443 436 l 443 625 m -6 1154 l -6 954 l 499 954 l 499 1154 l -6 1154 m -6 -160 l -6 -360 l 497 -360 l 497 -160 l -6 -160 "},"ˆ":{"ha":896,"x_min":-6,"x_max":901,"o":"m 501 954 l 389 954 l 440 1050 l 501 954 m -6 1154 l 901 1154 l 901 954 l 704 954 l 610 1103 l 269 1103 l 186 954 l -6 954 l -6 1154 m 901 -160 l 901 -360 l -6 -360 l -6 -160 l 901 -160 "},"‰":{"ha":1539,"x_min":-7,"x_max":1546,"o":"m 1546 954 l -7 954 l -7 1154 l 1546 1154 l 1546 954 m 1546 -360 l -7 -360 l -7 -160 l 1546 -160 l 1546 -360 m 481 0 l 281 0 l 615 794 l 818 794 l 481 0 m 768 201 q 792 144 768 168 q 847 119 817 119 q 903 142 879 119 q 926 201 926 165 q 903 264 926 240 q 847 288 879 288 q 792 263 817 288 q 768 201 768 238 m 643 201 q 658 280 643 243 q 699 344 672 317 q 764 388 726 372 q 847 404 801 404 q 931 388 893 404 q 996 344 969 372 q 1037 280 1022 317 q 1051 201 1051 243 q 1036 124 1051 161 q 994 60 1021 88 q 929 16 967 32 q 847 0 892 0 q 765 16 803 0 q 701 60 728 32 q 658 124 674 88 q 643 201 643 161 m 172 592 q 197 534 172 558 q 251 510 221 510 q 307 533 283 510 q 331 592 331 556 q 307 654 331 631 q 251 678 283 678 q 197 653 221 678 q 172 592 172 628 m 47 592 q 62 670 47 633 q 103 735 76 707 q 168 778 131 763 q 251 794 206 794 q 335 778 297 794 q 400 735 374 763 q 441 670 426 707 q 456 592 456 633 q 440 515 456 551 q 398 450 425 478 q 333 406 371 422 q 251 390 296 390 q 169 406 207 390 q 105 450 132 422 q 63 515 78 478 q 47 592 47 551 m 1208 201 q 1233 144 1208 168 q 1288 119 1257 119 q 1343 142 1319 119 q 1367 201 1367 165 q 1343 264 1367 240 q 1288 288 1319 288 q 1233 263 1257 288 q 1208 201 1208 238 m 1083 201 q 1098 280 1083 243 q 1140 344 1113 317 q 1204 388 1167 372 q 1288 404 1242 404 q 1372 388 1333 404 q 1436 344 1410 372 q 1477 280 1463 317 q 1492 201 1492 243 q 1476 124 1492 161 q 1434 60 1461 88 q 1369 16 1407 32 q 1288 0 1332 0 q 1206 16 1243 0 q 1141 60 1168 32 q 1099 124 1114 88 q 1083 201 1083 161 "},"Š":{"ha":899,"x_min":-6,"x_max":908,"o":"m 515 1103 l 450 978 l 368 1103 l 167 1103 l 261 954 l -6 954 l -6 1154 l 908 1154 l 908 954 l 638 954 l 721 1103 l 515 1103 m 908 -160 l 908 -360 l -6 -360 l -6 -160 l 908 -160 m 50 0 l 50 167 l 438 167 q 510 168 471 167 q 583 176 549 169 q 639 197 617 183 q 661 236 661 211 q 608 292 661 281 q 463 303 556 303 q 317 310 392 303 q 183 340 243 317 q 85 410 124 364 q 47 535 47 456 q 83 681 47 628 q 176 758 119 733 q 301 789 233 783 q 435 794 369 794 l 849 794 l 849 628 l 461 628 q 389 626 428 628 q 316 618 350 625 q 260 597 282 611 q 238 558 238 583 q 290 502 238 513 q 435 492 342 492 q 581 485 507 492 q 715 454 654 478 q 813 385 775 431 q 851 260 851 339 q 815 113 851 165 q 722 36 779 61 q 597 6 665 11 q 464 0 528 0 l 50 0 "},"‹":{"ha":606,"x_min":32,"x_max":611,"o":"m 32 396 l 399 1154 l 611 1154 l 611 954 l 511 954 l 242 397 l 511 -160 l 611 -160 l 611 -360 l 399 -360 l 32 396 "},"Œ":{"ha":1314,"x_min":-6,"x_max":1322,"o":"m 1267 0 l 1267 167 l 979 167 q 909 187 946 167 q 840 239 872 207 q 788 310 808 271 q 767 386 767 349 l 767 406 q 789 483 768 443 q 841 554 810 522 q 909 607 872 586 q 979 628 946 628 l 1267 628 l 1267 794 l 976 794 q 853 770 917 794 q 736 706 790 746 l 736 794 l 446 794 q 313 767 381 794 q 188 692 244 739 q 92 581 131 644 q 47 447 53 518 l 47 347 q 92 213 53 276 q 188 103 131 150 q 313 28 244 56 q 446 0 381 0 l 736 0 l 736 89 q 853 24 790 47 q 976 0 917 0 l 1267 0 m -6 1154 l -6 954 l 1322 954 l 1322 1154 l -6 1154 m -6 -160 l -6 -360 l 1321 -360 l 1321 -160 l -6 -160 m 654 628 q 602 542 622 588 q 578 447 582 496 l 578 347 q 602 253 582 299 q 654 167 622 207 l 449 167 q 378 188 415 167 q 310 240 342 208 q 258 312 279 272 q 236 389 238 351 l 236 408 q 257 485 236 446 q 310 556 278 524 q 378 608 342 588 q 449 628 415 628 l 654 628 m 1222 492 l 871 492 l 871 303 l 1222 303 l 1222 492 "},"Ž":{"ha":899,"x_min":-7,"x_max":908,"o":"m 47 0 l 47 260 q 85 385 47 339 q 184 454 124 431 q 318 485 244 478 q 464 492 392 492 q 609 502 557 492 q 661 558 661 513 l 661 628 l 50 628 l 50 794 l 851 794 l 851 535 q 813 410 851 456 q 715 340 775 364 q 581 310 656 317 q 436 303 507 303 q 290 292 343 303 q 238 236 238 281 l 238 167 l 849 167 l 849 0 l 47 0 m -7 -160 l 907 -160 l 907 -360 l -7 -360 l -7 -160 m 515 1103 l 450 978 l 368 1103 l 167 1103 l 261 954 l -6 954 l -6 1154 l 908 1154 l 908 954 l 638 954 l 721 1103 l 515 1103 "},"‘":{"ha":283,"x_min":-6,"x_max":289,"o":"m 47 521 l 47 794 l 236 794 l 236 638 q 216 601 236 621 q 167 563 196 581 q 105 533 138 544 q 47 521 72 521 m -6 -160 l 289 -160 l 289 -360 l -6 -360 l -6 -160 m -6 1154 l 289 1154 l 289 954 l -6 954 l -6 1154 "},"’":{"ha":283,"x_min":-6,"x_max":289,"o":"m 47 521 l 47 794 l 236 794 l 236 638 q 216 601 236 621 q 167 563 196 581 q 105 533 138 544 q 47 521 72 521 m -6 -160 l 289 -160 l 289 -360 l -6 -360 l -6 -160 m -6 1154 l 289 1154 l 289 954 l -6 954 l -6 1154 "},"“":{"ha":524,"x_min":-6,"x_max":531,"o":"m 47 521 l 47 794 l 236 794 l 236 638 q 216 601 236 621 q 167 563 196 581 q 105 533 138 544 q 47 521 72 521 m -6 -160 l 531 -160 l 531 -360 l -6 -360 l -6 -160 m -6 1154 l 531 1154 l 531 954 l -6 954 l -6 1154 m 288 521 l 288 794 l 476 794 l 476 638 q 456 601 476 621 q 407 563 436 581 q 345 533 378 544 q 288 521 313 521 "},"”":{"ha":524,"x_min":-6,"x_max":531,"o":"m 47 521 l 47 794 l 236 794 l 236 638 q 216 601 236 621 q 167 563 196 581 q 105 533 138 544 q 47 521 72 521 m -6 -160 l 531 -160 l 531 -360 l -6 -360 l -6 -160 m -6 1154 l 531 1154 l 531 954 l -6 954 l -6 1154 m 288 521 l 288 794 l 476 794 l 476 638 q 456 601 476 621 q 407 563 436 581 q 345 533 378 544 q 288 521 313 521 "},"•":{"ha":903,"x_min":-6,"x_max":908,"o":"m 43 396 q 72 551 43 478 q 155 681 101 625 q 284 769 208 736 q 451 801 360 801 q 618 769 543 801 q 747 681 693 736 q 831 551 801 625 q 860 396 860 478 q 829 241 860 314 q 744 113 799 168 q 615 25 690 57 q 451 -7 540 -7 q 286 25 361 -7 q 157 113 211 57 q 73 241 103 168 q 43 396 43 314 m -6 -160 l 908 -160 l 908 -360 l -6 -360 l -6 -160 m -6 1154 l 908 1154 l 908 954 l -6 954 l -6 1154 "},"–":{"ha":460,"x_min":-6,"x_max":465,"o":"m 413 492 l 413 303 l 46 303 l 46 492 l 413 492 m -6 -160 l 465 -160 l 465 -360 l -6 -360 l -6 -160 m -6 1154 l 465 1154 l 465 954 l -6 954 l -6 1154 "},"—":{"ha":607,"x_min":-6,"x_max":615,"o":"m 614 -160 l 614 -360 l -6 -360 l -6 -160 l 614 -160 m 615 1154 l 615 954 l -6 954 l -6 1154 l 615 1154 m 46 303 l 46 492 l 560 492 l 560 303 l 46 303 "},"˜":{"ha":896,"x_min":-7,"x_max":904,"o":"m -6 -160 l 904 -160 l 904 -360 l -6 -360 l -6 -160 m 432 954 l 307 954 l 358 1050 l 432 954 m -7 954 l -7 1154 l 903 1154 l 903 954 l 696 954 l 792 1103 l 604 1103 l 542 1006 l 465 1103 l 188 1103 l 104 954 l -7 954 "},"™":{"ha":544,"x_min":-6,"x_max":553,"o":"m 279 860 q 289 863 282 863 q 299 865 299 863 l 294 867 q 295 867 294 867 q 299 868 296 868 q 310 862 303 868 q 327 847 318 856 q 344 826 336 838 q 356 803 351 814 l 358 790 q 374 739 368 760 q 386 703 381 718 q 397 740 393 722 q 407 782 401 757 q 442 849 422 832 q 488 867 463 867 l 497 867 l 497 636 l 472 636 l 472 786 l 463 803 l 406 650 q 405 648 406 649 q 404 646 404 647 q 399 638 401 639 q 390 636 397 636 l 385 636 q 377 638 381 636 q 369 650 374 639 l 314 799 l 303 786 l 303 636 l 279 636 l 279 860 m 46 831 l 46 867 l 240 867 l 240 831 l 161 831 l 161 636 l 126 636 l 126 831 l 46 831 m -6 -160 l 553 -160 l 553 -360 l -6 -360 l -6 -160 m -6 1154 l 553 1154 l 553 954 l -6 954 l -6 1154 "},"š":{"ha":899,"x_min":-6,"x_max":908,"o":"m 515 1103 l 450 978 l 368 1103 l 167 1103 l 261 954 l -6 954 l -6 1154 l 908 1154 l 908 954 l 638 954 l 721 1103 l 515 1103 m 908 -160 l 908 -360 l -6 -360 l -6 -160 l 908 -160 m 50 0 l 50 167 l 438 167 q 510 168 471 167 q 583 176 549 169 q 639 197 617 183 q 661 236 661 211 q 608 292 661 281 q 463 303 556 303 q 317 310 392 303 q 183 340 243 317 q 85 410 124 364 q 47 535 47 456 q 83 681 47 628 q 176 758 119 733 q 301 789 233 783 q 435 794 369 794 l 849 794 l 849 628 l 461 628 q 389 626 428 628 q 316 618 350 625 q 260 597 282 611 q 238 558 238 583 q 290 502 238 513 q 435 492 342 492 q 581 485 507 492 q 715 454 654 478 q 813 385 775 431 q 851 260 851 339 q 815 113 851 165 q 722 36 779 61 q 597 6 665 11 q 464 0 528 0 l 50 0 "},"›":{"ha":606,"x_min":-6,"x_max":574,"o":"m 574 396 l 207 1154 l -6 1154 l -6 954 l 94 954 l 364 397 l 94 -160 l -6 -160 l -6 -360 l 207 -360 l 574 396 "},"œ":{"ha":1314,"x_min":-6,"x_max":1322,"o":"m 1267 0 l 1267 167 l 979 167 q 909 187 946 167 q 840 239 872 207 q 788 310 808 271 q 767 386 767 349 l 767 406 q 789 483 768 443 q 841 554 810 522 q 909 607 872 586 q 979 628 946 628 l 1267 628 l 1267 794 l 976 794 q 853 770 917 794 q 736 706 790 746 l 736 794 l 446 794 q 313 767 381 794 q 188 692 244 739 q 92 581 131 644 q 47 447 53 518 l 47 347 q 92 213 53 276 q 188 103 131 150 q 313 28 244 56 q 446 0 381 0 l 736 0 l 736 89 q 853 24 790 47 q 976 0 917 0 l 1267 0 m -6 1154 l -6 954 l 1322 954 l 1322 1154 l -6 1154 m -6 -160 l -6 -360 l 1321 -360 l 1321 -160 l -6 -160 m 654 628 q 602 542 622 588 q 578 447 582 496 l 578 347 q 602 253 582 299 q 654 167 622 207 l 449 167 q 378 188 415 167 q 310 240 342 208 q 258 312 279 272 q 236 389 238 351 l 236 408 q 257 485 236 446 q 310 556 278 524 q 378 608 342 588 q 449 628 415 628 l 654 628 m 1222 492 l 871 492 l 871 303 l 1222 303 l 1222 492 "},"ž":{"ha":899,"x_min":-7,"x_max":908,"o":"m 47 0 l 47 260 q 85 385 47 339 q 184 454 124 431 q 318 485 244 478 q 464 492 392 492 q 609 502 557 492 q 661 558 661 513 l 661 628 l 50 628 l 50 794 l 851 794 l 851 535 q 813 410 851 456 q 715 340 775 364 q 581 310 656 317 q 436 303 507 303 q 290 292 343 303 q 238 236 238 281 l 238 167 l 849 167 l 849 0 l 47 0 m -7 -160 l 907 -160 l 907 -360 l -7 -360 l -7 -160 m 515 1103 l 450 978 l 368 1103 l 167 1103 l 261 954 l -6 954 l -6 1154 l 908 1154 l 908 954 l 638 954 l 721 1103 l 515 1103 "},"Ÿ":{"ha":896,"x_min":-6,"x_max":901,"o":"m -6 1154 l 901 1154 l 901 954 l 707 954 l 707 1103 l 518 1103 l 518 954 l 375 954 l 375 1103 l 186 1103 l 186 954 l -6 954 l -6 1154 m -6 -160 l 901 -160 l 901 -360 l -6 -360 l -6 -160 m 353 0 l 353 239 q 241 273 294 250 q 146 331 188 296 q 78 411 104 365 q 47 514 51 457 l 47 794 l 236 794 l 236 533 q 315 432 257 467 q 447 397 372 397 q 517 408 481 397 q 585 438 554 418 q 636 488 615 458 q 660 554 657 517 l 660 794 l 849 794 l 849 515 q 817 410 844 457 q 746 328 789 363 q 650 271 703 293 q 542 239 597 249 l 542 0 l 353 0 "},"¡":{"ha":283,"x_min":-6,"x_max":290,"o":"m 236 794 l 236 606 l 47 606 l 47 794 l 236 794 m -6 -160 l 290 -160 l 290 -360 l -6 -360 l -6 -160 m -6 1154 l 290 1154 l 290 954 l -6 954 l -6 1154 m 236 553 l 236 0 l 47 0 l 47 553 l 236 553 "},"¢":{"ha":783,"x_min":-6,"x_max":790,"o":"m 236 389 q 250 330 238 360 q 283 272 263 300 q 328 222 303 244 q 381 186 353 200 l 381 608 q 327 572 353 594 q 281 523 301 550 q 249 466 261 496 q 236 408 236 436 l 236 389 m -6 -160 l 789 -160 l 789 -360 l -6 -360 l -6 -160 m -6 1154 l 790 1154 l 790 954 l -6 954 l -6 1154 m 381 7 q 265 51 322 19 q 160 127 207 82 q 82 228 113 172 q 47 347 51 285 l 47 447 q 82 566 51 510 q 160 667 113 622 q 265 744 207 713 q 381 788 322 775 l 381 879 l 569 879 l 569 794 l 736 794 l 736 628 l 569 628 l 569 167 l 736 167 l 736 0 l 569 0 l 569 -85 l 381 -85 l 381 7 "},"£":{"ha":876,"x_min":-7,"x_max":883,"o":"m 531 794 q 397 789 465 794 q 272 758 329 783 q 179 681 215 733 q 143 535 143 628 q 149 490 143 500 l 47 490 l 47 301 l 149 301 q 143 260 143 292 q 156 167 143 206 l 47 167 l 47 0 l 832 0 l 832 167 l 557 167 q 485 168 524 167 q 412 176 446 169 q 356 197 378 183 q 333 236 333 211 q 369 286 333 271 q 463 301 404 301 l 686 301 l 686 492 l 557 492 q 465 493 506 492 q 394 501 424 494 q 349 521 365 507 q 333 558 333 535 q 356 597 333 583 q 412 618 378 611 q 485 626 446 625 q 557 628 524 628 l 557 794 l 531 794 m 883 -160 l -7 -160 l -7 -360 l 883 -360 l 883 -160 m 883 1154 l -7 1154 l -7 954 l 883 954 l 883 1154 "},"¤":{"ha":899,"x_min":-6,"x_max":907,"o":"m 907 -160 l 907 -360 l -6 -360 l -6 -160 l 907 -160 m 907 1154 l 907 954 l -6 954 l -6 1154 l 907 1154 m 665 100 q 636 165 658 128 q 553 115 600 133 q 449 97 507 97 q 344 115 390 97 q 263 165 297 133 q 244 131 251 147 q 233 100 236 114 l 233 0 l 47 0 l 47 128 q 76 238 47 181 q 154 332 106 296 q 76 408 106 364 q 47 535 47 453 l 47 794 l 238 794 l 238 529 q 246 490 238 507 q 332 551 282 529 q 449 574 382 574 q 566 551 515 574 q 651 490 617 529 q 661 529 661 504 l 661 794 l 851 794 l 851 535 q 822 408 851 453 q 744 332 793 364 q 822 238 793 296 q 851 128 851 181 l 851 0 l 665 0 l 665 100 m 347 335 q 356 297 347 314 q 378 266 364 279 q 411 245 393 253 q 449 238 429 238 q 521 265 490 238 q 551 335 551 292 q 521 408 551 379 q 449 436 490 436 q 378 406 410 436 q 347 335 347 376 "},"¥":{"ha":896,"x_min":-6,"x_max":903,"o":"m 721 393 l 542 393 l 542 442 q 650 474 597 451 q 746 531 703 496 q 817 613 789 565 q 849 718 844 660 l 849 794 l 660 794 l 660 757 q 636 690 657 719 q 585 641 615 661 q 517 610 554 621 q 447 600 481 600 q 315 635 372 600 q 236 736 257 669 l 236 794 l 47 794 l 47 717 q 78 614 51 660 q 146 533 104 568 q 241 476 188 499 q 353 442 294 453 l 353 393 l 174 393 l 174 228 l 353 228 l 353 165 l 174 165 l 174 0 l 353 0 l 353 -83 l 542 -83 l 542 0 l 721 0 l 721 165 l 542 165 l 542 228 l 721 228 l 721 393 m -6 -160 l -6 -360 l 903 -360 l 903 -160 l -6 -160 m -6 1154 l -6 954 l 903 954 l 903 1154 l -6 1154 "},"¦":{"ha":283,"x_min":-6,"x_max":290,"o":"m 236 -160 l 290 -160 l 290 -360 l -6 -360 l -6 -160 l 47 -160 l 47 358 l 236 358 l 236 -160 m 47 436 l 47 954 l -6 954 l -6 1154 l 290 1154 l 290 954 l 236 954 l 236 436 l 47 436 "},"§":{"ha":899,"x_min":-6,"x_max":907,"o":"m 907 -160 l 907 -360 l -6 -360 l -6 -160 l 907 -160 m 907 1154 l 907 954 l -6 954 l -6 1154 l 907 1154 m 154 332 q 171 354 163 344 q 188 374 179 364 l 189 375 q 217 453 196 417 q 273 516 239 489 q 351 558 307 543 q 449 574 396 574 q 566 551 515 574 q 651 490 617 529 q 661 529 661 504 l 661 794 l 851 794 l 851 535 q 822 408 851 453 q 744 332 793 364 l 711 318 q 688 233 708 272 q 632 163 667 193 q 551 115 597 132 q 449 97 504 97 q 344 115 390 97 q 263 165 297 133 q 244 131 251 147 q 233 100 236 114 l 233 0 l 47 0 l 47 128 q 76 238 47 181 q 154 332 106 296 m 347 335 q 356 297 347 314 q 378 266 364 279 q 411 245 393 253 q 449 238 429 238 q 521 265 490 238 q 551 335 551 292 q 521 408 551 379 q 449 436 490 436 q 378 406 410 436 q 347 335 347 376 "},"¨":{"ha":896,"x_min":-6,"x_max":901,"o":"m -6 1154 l 901 1154 l 901 954 l 707 954 l 707 1103 l 518 1103 l 518 954 l 375 954 l 375 1103 l 186 1103 l 186 954 l -6 954 l -6 1154 m -6 -160 l 901 -160 l 901 -360 l -6 -360 l -6 -160 "},"©":{"ha":367,"x_min":-6,"x_max":375,"o":"m 183 867 q 246 847 218 867 q 301 794 282 831 q 319 729 319 768 q 301 656 319 690 q 278 631 292 642 q 246 611 264 621 q 183 592 218 592 q 110 611 142 592 q 83 631 94 621 q 63 656 72 640 q 49 692 54 675 q 44 729 44 710 q 49 764 44 749 q 63 794 54 779 q 85 826 74 813 q 111 847 96 839 q 183 867 147 867 m 183 844 q 124 828 151 844 q 85 782 96 813 q 68 729 68 758 q 83 669 68 697 q 122 629 93 643 q 151 619 136 624 q 183 615 167 615 q 212 619 199 615 q 235 629 225 624 q 279 669 264 642 q 296 729 296 696 q 279 782 296 758 q 261 808 272 796 q 235 829 250 819 q 183 844 215 844 m 225 706 l 246 700 q 224 661 239 675 q 183 647 210 647 q 128 668 149 647 q 107 729 107 689 q 128 785 107 765 q 185 804 149 804 q 223 792 210 804 q 243 763 236 781 l 224 758 q 185 782 215 782 q 147 769 161 782 q 132 728 132 756 q 146 683 132 697 q 182 669 160 669 q 225 706 221 669 m -6 -160 l 375 -160 l 375 -360 l -6 -360 l -6 -160 m -6 1154 l 375 1154 l 375 954 l -6 954 l -6 1154 "},"ª":{"ha":401,"x_min":-7,"x_max":408,"o":"m -7 -160 l 408 -160 l 408 -360 l -7 -360 l -7 -160 "},"«":{"ha":979,"x_min":33,"x_max":985,"o":"m 33 394 l 400 -360 l 985 -360 l 985 -160 l 885 -160 l 615 397 l 883 954 l 985 954 l 985 1154 l 400 1154 l 33 394 m 406 396 l 675 -161 l 513 -161 l 243 396 l 513 954 l 675 954 l 406 396 "},"¬":{"ha":607,"x_min":-6,"x_max":615,"o":"m 614 -160 l 614 -360 l -6 -360 l -6 -160 l 614 -160 m 615 1154 l 615 954 l -6 954 l -6 1154 l 615 1154 m 371 142 l 371 303 l 46 303 l 46 492 l 560 492 l 560 142 l 371 142 "},"­":{"ha":413,"x_min":-6,"x_max":418,"o":"m 365 492 l 365 303 l 46 303 l 46 492 l 365 492 m -6 -160 l 418 -160 l 418 -360 l -6 -360 l -6 -160 m -6 1154 l 418 1154 l 418 954 l -6 954 l -6 1154 "},"®":{"ha":367,"x_min":-6,"x_max":375,"o":"m -6 -160 l 375 -160 l 375 -360 l -6 -360 l -6 -160 m -6 1154 l 375 1154 l 375 954 l -6 954 l -6 1154 m 183 867 q 246 847 218 867 q 301 794 282 831 q 319 729 319 768 q 301 656 319 690 q 278 631 292 642 q 246 611 264 621 q 183 592 218 592 q 110 611 142 592 q 83 631 94 621 q 63 656 72 640 q 49 692 54 675 q 44 729 44 710 q 49 764 44 749 q 63 794 54 779 q 85 826 74 813 q 111 847 96 839 q 183 867 147 867 m 183 844 q 124 828 151 844 q 85 782 96 813 q 68 729 68 758 q 83 669 68 697 q 122 629 93 643 q 151 619 136 624 q 183 615 167 615 q 212 619 199 615 q 235 629 225 624 q 279 669 264 642 q 296 729 296 696 q 279 782 296 758 q 261 808 272 796 q 235 829 250 819 q 183 844 215 844 m 119 649 l 119 799 l 172 799 q 195 797 185 799 q 211 793 206 796 q 226 779 221 789 q 232 761 232 774 q 223 733 232 746 q 193 718 214 721 q 226 679 217 711 l 243 649 l 218 649 l 206 674 q 189 698 194 689 q 179 711 183 707 q 158 715 172 715 l 143 715 l 143 649 l 119 649 m 143 736 l 175 736 q 204 742 197 736 q 211 760 211 749 q 197 775 211 774 q 188 777 193 776 q 172 778 182 778 l 143 778 l 143 736 "},"¯":{"ha":401,"x_min":-7,"x_max":408,"o":"m -7 1154 l 408 1154 l 408 954 l -7 954 l -7 1154 "},"°":{"ha":896,"x_min":-6,"x_max":901,"o":"m -6 1154 l 901 1154 l 901 954 l 540 954 l 540 1103 l 353 1103 l 353 954 l -6 954 l -6 1154 m -6 -160 l 901 -160 l 901 -360 l -6 -360 l -6 -160 "},"±":{"ha":607,"x_min":-6,"x_max":615,"o":"m 614 -160 l 614 -360 l -6 -360 l -6 -160 l 614 -160 m 615 1154 l 615 954 l -6 954 l -6 1154 l 615 1154 m 210 238 l 210 399 l 46 399 l 46 588 l 210 588 l 210 751 l 399 751 l 399 588 l 560 588 l 560 399 l 399 399 l 399 238 l 210 238 m 46 0 l 46 189 l 560 189 l 560 0 l 46 0 "},"²":{"ha":496,"x_min":-7,"x_max":501,"o":"m 501 954 l -7 954 l -7 1154 l 501 1154 l 501 954 m 501 -360 l -7 -360 l -7 -160 l 501 -160 l 501 -360 m 46 461 l 46 597 q 65 664 46 639 q 114 702 83 689 q 181 719 144 715 q 254 722 218 722 q 322 732 322 722 q 306 740 322 738 q 269 743 289 743 l 243 743 l 47 743 l 47 858 l 254 858 q 321 856 286 858 q 384 839 356 853 q 431 798 413 825 q 449 721 449 771 q 430 655 449 679 q 381 617 411 631 q 313 601 350 604 q 242 597 276 597 q 191 596 210 597 q 172 588 172 594 l 172 576 l 447 576 l 447 461 l 46 461 "},"³":{"ha":439,"x_min":-7,"x_max":444,"o":"m 444 954 l -7 954 l -7 1154 l 444 1154 l 444 954 m 444 -360 l -7 -360 l -7 -160 l 444 -160 l 444 -360 m 200 858 q 266 856 232 858 q 328 839 300 853 q 374 798 356 825 q 392 721 392 771 q 383 683 392 697 q 364 658 375 669 q 384 634 376 647 q 392 597 392 621 q 374 521 392 549 q 328 480 356 493 q 266 464 300 467 q 200 461 232 461 l 47 461 l 47 576 l 189 576 l 214 576 q 250 579 233 576 q 267 588 267 582 q 246 596 267 594 q 190 597 225 597 l 111 597 l 111 722 l 189 722 q 246 724 225 722 q 267 732 267 725 q 250 740 267 738 q 214 743 233 743 l 189 743 l 47 743 l 47 858 l 200 858 "},"´":{"ha":517,"x_min":-6,"x_max":522,"o":"m -6 1154 l 522 1154 l 522 954 l 303 954 l 418 1103 l 222 1103 l 132 954 l -6 954 l -6 1154 m 522 -160 l 522 -360 l -6 -360 l -6 -160 l 522 -160 "},"µ":{"ha":896,"x_min":-6,"x_max":901,"o":"m 450 -6 q 583 13 514 -6 q 708 66 651 31 q 804 155 765 101 q 849 279 843 208 l 849 794 l 660 794 l 660 318 q 636 251 657 281 q 585 202 615 222 q 517 172 554 182 q 447 161 481 161 q 315 196 372 161 q 236 297 257 231 l 236 794 l 47 794 l 47 -85 l 236 -85 l 236 39 q 450 -6 346 -6 m -6 -360 l 901 -360 l 901 -160 l -6 -160 l -6 -360 m -6 954 l 901 954 l 901 1154 l -6 1154 l -6 954 "},"¶":{"ha":867,"x_min":-6,"x_max":875,"o":"m -6 -360 l -6 -160 l 874 -160 l 874 -360 l -6 -360 m -6 954 l -6 1154 l 875 1154 l 875 954 l -6 954 m 819 -86 l 631 -86 l 631 628 l 558 628 l 558 -86 l 369 -86 l 369 249 q 251 271 308 254 q 149 320 193 288 q 77 405 104 353 q 50 535 50 457 q 89 678 50 626 q 187 756 128 729 q 317 788 246 782 q 453 794 388 794 l 819 794 l 819 -86 "},"·":{"ha":283,"x_min":-6,"x_max":289,"o":"m -6 -160 l 289 -160 l 289 -360 l -6 -360 l -6 -160 m -6 1154 l 289 1154 l 289 954 l -6 954 l -6 1154 m 47 303 l 47 492 l 236 492 l 236 303 l 47 303 "},"¸":{"ha":783,"x_min":-6,"x_max":790,"o":"m 503 -160 l 503 0 l 363 0 l 363 -96 l 274 -96 l 274 -160 l 503 -160 m -6 954 l 790 954 l 790 1154 l -6 1154 l -6 954 m 274 -218 l 274 -160 l -6 -160 l -6 -360 l 789 -360 l 789 -160 l 503 -160 l 503 -218 l 274 -218 "},"¹":{"ha":267,"x_min":-7,"x_max":272,"o":"m 272 954 l -7 954 l -7 1154 l 272 1154 l 272 954 m 272 -360 l -7 -360 l -7 -160 l 272 -160 l 272 -360 m 219 858 l 219 460 l 94 460 l 94 742 l 47 742 l 47 858 l 219 858 "},"º":{"ha":503,"x_min":-7,"x_max":508,"o":"m 508 954 l -7 954 l -7 1154 l 508 1154 l 508 954 m 508 -360 l -7 -360 l -7 -160 l 508 -160 l 508 -360 m 172 660 q 197 602 172 626 q 251 578 221 578 q 307 601 283 578 q 331 660 331 624 q 307 722 331 699 q 251 746 283 746 q 197 721 221 746 q 172 660 172 696 m 47 660 q 62 738 47 701 q 103 803 76 775 q 168 847 131 831 q 251 863 206 863 q 335 847 297 863 q 400 803 374 831 q 441 738 426 775 q 456 660 456 701 q 440 583 456 619 q 398 518 425 546 q 333 474 371 490 q 251 458 296 458 q 169 474 207 458 q 105 518 132 490 q 63 583 78 546 q 47 660 47 619 "},"»":{"ha":979,"x_min":-6,"x_max":946,"o":"m 304 954 l 467 954 l 736 396 l 467 -161 l 304 -161 l 574 396 l 304 954 m 579 1154 l -6 1154 l -6 954 l 96 954 l 364 397 l 94 -160 l -6 -160 l -6 -360 l 579 -360 l 946 394 l 579 1154 "},"¼":{"ha":961,"x_min":-6,"x_max":968,"o":"m 968 954 l -6 954 l -6 1154 l 968 1154 l 968 954 m 968 -360 l -6 -360 l -6 -160 l 968 -160 l 968 -360 m 300 0 l 100 0 l 435 794 l 638 794 l 300 0 m 789 0 l 789 108 l 514 108 l 514 397 l 639 397 l 639 233 l 789 233 l 789 397 l 914 397 l 914 0 l 789 0 m 219 794 l 219 396 l 94 396 l 94 678 l 47 678 l 47 794 l 219 794 "},"½":{"ha":961,"x_min":-6,"x_max":968,"o":"m 968 954 l -6 954 l -6 1154 l 968 1154 l 968 954 m 968 -360 l -6 -360 l -6 -160 l 968 -160 l 968 -360 m 300 0 l 100 0 l 435 794 l 638 794 l 300 0 m 219 794 l 219 396 l 94 396 l 94 678 l 47 678 l 47 794 l 219 794 m 513 0 l 513 136 q 531 203 513 178 q 581 241 550 228 q 648 258 611 254 q 721 261 685 261 q 789 271 789 261 q 772 279 789 276 q 736 282 756 282 l 710 282 l 514 282 l 514 397 l 721 397 q 788 394 753 397 q 851 378 822 392 q 897 337 879 364 q 915 260 915 310 q 897 194 915 218 q 847 156 878 169 q 780 140 817 143 q 708 136 743 136 q 658 135 676 136 q 639 126 639 133 l 639 115 l 914 115 l 914 0 l 513 0 "},"¾":{"ha":1097,"x_min":-6,"x_max":1104,"o":"m 1104 954 l -6 954 l -6 1154 l 1104 1154 l 1104 954 m 1104 -360 l -6 -360 l -6 -160 l 1104 -160 l 1104 -360 m 436 0 l 236 0 l 571 794 l 774 794 l 436 0 m 925 0 l 925 108 l 650 108 l 650 397 l 775 397 l 775 233 l 925 233 l 925 397 l 1050 397 l 1050 0 l 925 0 m 200 794 q 266 792 232 794 q 328 775 300 789 q 374 734 356 761 q 392 657 392 707 q 383 619 392 633 q 364 594 375 606 q 384 570 376 583 q 392 533 392 557 q 374 457 392 485 q 328 416 356 429 q 266 400 300 403 q 200 397 232 397 l 47 397 l 47 513 l 189 513 l 214 513 q 250 515 233 513 q 267 524 267 518 q 246 532 267 531 q 190 533 225 533 l 111 533 l 111 658 l 189 658 q 246 660 225 658 q 267 668 267 661 q 250 676 267 674 q 214 679 233 679 l 189 679 l 47 679 l 47 794 l 200 794 "},"¿":{"ha":896,"x_min":-7,"x_max":904,"o":"m -7 -160 l 904 -160 l 904 -360 l -7 -360 l -7 -160 m -7 1154 l 904 1154 l 904 954 l -7 954 l -7 1154 m 811 553 l 811 535 q 775 410 811 456 q 681 340 739 364 q 552 310 624 317 q 408 303 481 303 q 275 292 315 303 q 235 236 235 282 q 257 197 235 211 q 313 176 279 183 q 386 168 347 169 q 458 167 425 167 l 846 167 l 846 0 l 432 0 q 299 6 367 0 q 174 36 231 11 q 81 113 117 61 q 44 260 44 165 q 79 385 44 339 q 169 454 114 431 q 295 485 225 478 q 436 492 365 492 q 575 503 529 492 q 621 543 621 515 l 621 553 l 811 553 m 811 794 l 811 606 l 622 606 l 622 794 l 811 794 "},"À":{"ha":896,"x_min":-7,"x_max":900,"o":"m 900 -160 l 900 -360 l -7 -360 l -7 -160 l 900 -160 m 900 954 l 563 954 l 472 1103 l 276 1103 l 392 954 l -7 954 l -7 1154 l 900 1154 l 900 954 m 849 794 l 849 0 l 660 0 l 660 628 l 449 628 q 378 617 415 628 q 311 587 342 607 q 260 538 281 567 q 236 471 239 508 l 236 431 l 588 431 l 588 242 l 236 242 l 236 0 l 47 0 l 47 510 q 92 634 53 581 q 188 723 131 688 q 313 776 244 758 q 446 794 381 794 l 849 794 "},"Á":{"ha":896,"x_min":-6,"x_max":901,"o":"m -6 1154 l 901 1154 l 901 954 l 503 954 l 618 1103 l 422 1103 l 332 954 l -6 954 l -6 1154 m 901 -160 l 901 -360 l -6 -360 l -6 -160 l 901 -160 m 849 794 l 849 0 l 660 0 l 660 628 l 449 628 q 378 617 415 628 q 311 587 342 607 q 260 538 281 567 q 236 471 239 508 l 236 431 l 588 431 l 588 242 l 236 242 l 236 0 l 47 0 l 47 510 q 92 634 53 581 q 188 723 131 688 q 313 776 244 758 q 446 794 381 794 l 849 794 "},"Â":{"ha":896,"x_min":-6,"x_max":901,"o":"m 501 954 l 389 954 l 440 1050 l 501 954 m -6 1154 l 901 1154 l 901 954 l 704 954 l 610 1103 l 269 1103 l 186 954 l -6 954 l -6 1154 m 901 -160 l 901 -360 l -6 -360 l -6 -160 l 901 -160 m 849 794 l 849 0 l 660 0 l 660 628 l 449 628 q 378 617 415 628 q 311 587 342 607 q 260 538 281 567 q 236 471 239 508 l 236 431 l 588 431 l 588 242 l 236 242 l 236 0 l 47 0 l 47 510 q 92 634 53 581 q 188 723 131 688 q 313 776 244 758 q 446 794 381 794 l 849 794 "},"Ã":{"ha":896,"x_min":-7,"x_max":904,"o":"m -6 -160 l 904 -160 l 904 -360 l -6 -360 l -6 -160 m 432 954 l 307 954 l 358 1050 l 432 954 m -7 954 l -7 1154 l 903 1154 l 903 954 l 696 954 l 792 1103 l 604 1103 l 542 1006 l 465 1103 l 188 1103 l 104 954 l -7 954 m 849 794 l 849 0 l 660 0 l 660 628 l 449 628 q 378 617 415 628 q 311 587 342 607 q 260 538 281 567 q 236 471 239 508 l 236 431 l 588 431 l 588 242 l 236 242 l 236 0 l 47 0 l 47 510 q 92 634 53 581 q 188 723 131 688 q 313 776 244 758 q 446 794 381 794 l 849 794 "},"Ä":{"ha":896,"x_min":-6,"x_max":901,"o":"m -6 1154 l 901 1154 l 901 954 l 707 954 l 707 1103 l 518 1103 l 518 954 l 375 954 l 375 1103 l 186 1103 l 186 954 l -6 954 l -6 1154 m -6 -160 l 901 -160 l 901 -360 l -6 -360 l -6 -160 m 849 794 l 849 0 l 660 0 l 660 628 l 449 628 q 378 617 415 628 q 311 587 342 607 q 260 538 281 567 q 236 471 239 508 l 236 431 l 588 431 l 588 242 l 236 242 l 236 0 l 47 0 l 47 510 q 92 634 53 581 q 188 723 131 688 q 313 776 244 758 q 446 794 381 794 l 849 794 "},"Å":{"ha":896,"x_min":-6,"x_max":901,"o":"m -6 1154 l 901 1154 l 901 954 l 540 954 l 540 1103 l 353 1103 l 353 954 l -6 954 l -6 1154 m -6 -160 l 901 -160 l 901 -360 l -6 -360 l -6 -160 m 849 794 l 849 0 l 660 0 l 660 628 l 449 628 q 378 617 415 628 q 311 587 342 607 q 260 538 281 567 q 236 471 239 508 l 236 431 l 588 431 l 588 242 l 236 242 l 236 0 l 47 0 l 47 510 q 92 634 53 581 q 188 723 131 688 q 313 776 244 758 q 446 794 381 794 l 849 794 "},"Æ":{"ha":1429,"x_min":-6,"x_max":1436,"o":"m 1382 0 l 1382 167 l 1090 167 q 1020 187 1057 167 q 951 239 983 207 q 899 310 919 271 q 878 386 878 349 l 878 406 q 900 483 879 443 q 952 554 921 522 q 1020 607 983 586 q 1090 628 1057 628 l 1382 628 l 1382 794 l 1088 794 q 932 756 1011 794 q 790 656 853 718 q 722 719 761 692 q 637 764 682 746 q 544 791 592 782 q 450 800 496 800 q 309 781 379 800 q 183 726 239 763 q 90 638 126 690 q 47 517 53 585 l 47 0 l 236 0 l 236 497 q 315 599 257 564 q 447 633 372 633 q 517 623 481 633 q 585 592 554 613 q 636 543 615 572 q 660 476 657 514 l 660 431 l 308 431 l 308 242 l 660 242 l 660 0 l 849 0 l 849 88 q 965 24 903 47 q 1088 0 1028 0 l 1382 0 m -6 1154 l -6 954 l 1436 954 l 1436 1154 l -6 1154 m -6 -160 l -6 -360 l 1436 -360 l 1436 -160 l -6 -160 m 1338 492 l 982 492 l 982 303 l 1338 303 l 1338 492 "},"Ç":{"ha":783,"x_min":-6,"x_max":790,"o":"m 503 -160 l 503 0 l 736 0 l 736 167 l 449 167 q 378 188 415 167 q 310 240 342 208 q 258 312 279 272 q 236 389 238 351 l 236 408 q 257 485 236 446 q 310 556 278 524 q 378 608 342 588 q 449 628 415 628 l 736 628 l 736 794 l 446 794 q 313 767 381 794 q 188 692 244 739 q 92 581 131 644 q 47 447 53 518 l 47 347 q 80 233 51 288 q 152 133 108 178 q 251 57 196 89 q 363 11 306 25 l 363 -96 l 274 -96 l 274 -160 l 503 -160 m -6 954 l 790 954 l 790 1154 l -6 1154 l -6 954 m 274 -218 l 274 -160 l -6 -160 l -6 -360 l 789 -360 l 789 -160 l 503 -160 l 503 -218 l 274 -218 "},"È":{"ha":783,"x_min":-7,"x_max":790,"o":"m 736 0 l 446 0 q 313 28 381 0 q 188 103 244 56 q 92 213 131 150 q 47 347 53 276 l 47 447 q 92 581 53 518 q 188 692 131 644 q 313 767 244 739 q 446 794 381 794 l 736 794 l 736 628 l 449 628 q 378 607 415 628 q 310 554 342 586 q 258 483 279 522 q 236 406 238 443 l 236 386 q 257 310 236 349 q 310 239 278 271 q 378 187 342 207 q 449 167 415 167 l 736 167 l 736 0 m 692 492 l 692 303 l 340 303 l 340 492 l 692 492 m -6 -160 l 790 -160 l 790 -360 l -6 -360 l -6 -160 m 789 954 l 546 954 l 456 1103 l 260 1103 l 375 954 l -7 954 l -7 1154 l 789 1154 l 789 954 "},"É":{"ha":783,"x_min":-6,"x_max":790,"o":"m 736 0 l 446 0 q 313 28 381 0 q 188 103 244 56 q 92 213 131 150 q 47 347 53 276 l 47 447 q 92 581 53 518 q 188 692 131 644 q 313 767 244 739 q 446 794 381 794 l 736 794 l 736 628 l 449 628 q 378 607 415 628 q 310 554 342 586 q 258 483 279 522 q 236 406 238 443 l 236 386 q 257 310 236 349 q 310 239 278 271 q 378 187 342 207 q 449 167 415 167 l 736 167 l 736 0 m 692 492 l 692 303 l 340 303 l 340 492 l 692 492 m -6 -160 l 790 -160 l 790 -360 l -6 -360 l -6 -160 m -6 1154 l 789 1154 l 789 954 l 486 954 l 601 1103 l 406 1103 l 315 954 l -6 954 l -6 1154 "},"Ê":{"ha":783,"x_min":-6,"x_max":790,"o":"m 736 0 l 446 0 q 313 28 381 0 q 188 103 244 56 q 92 213 131 150 q 47 347 53 276 l 47 447 q 92 581 53 518 q 188 692 131 644 q 313 767 244 739 q 446 794 381 794 l 736 794 l 736 628 l 449 628 q 378 607 415 628 q 310 554 342 586 q 258 483 279 522 q 236 406 238 443 l 236 386 q 257 310 236 349 q 310 239 278 271 q 378 187 342 207 q 449 167 415 167 l 736 167 l 736 0 m 692 492 l 692 303 l 340 303 l 340 492 l 692 492 m -6 -160 l 790 -160 l 790 -360 l -6 -360 l -6 -160 m 485 954 l 372 954 l 424 1050 l 485 954 m -6 1154 l 790 1154 l 790 954 l 688 954 l 593 1103 l 253 1103 l 169 954 l -6 954 l -6 1154 "},"Ë":{"ha":783,"x_min":-6,"x_max":790,"o":"m 736 0 l 446 0 q 313 28 381 0 q 188 103 244 56 q 92 213 131 150 q 47 347 53 276 l 47 447 q 92 581 53 518 q 188 692 131 644 q 313 767 244 739 q 446 794 381 794 l 736 794 l 736 628 l 449 628 q 378 607 415 628 q 310 554 342 586 q 258 483 279 522 q 236 406 238 443 l 236 386 q 257 310 236 349 q 310 239 278 271 q 378 187 342 207 q 449 167 415 167 l 736 167 l 736 0 m 692 492 l 692 303 l 340 303 l 340 492 l 692 492 m -6 -160 l 790 -160 l 790 -360 l -6 -360 l -6 -160 m -6 1154 l 790 1154 l 790 954 l 690 954 l 690 1103 l 501 1103 l 501 954 l 358 954 l 358 1103 l 169 1103 l 169 954 l -6 954 l -6 1154 "},"Ì":{"ha":283,"x_min":-29,"x_max":313,"o":"m 313 954 l 279 954 l 189 1103 l -7 1103 l 108 954 l -29 954 l -29 1154 l 313 1154 l 313 954 m 47 0 l 47 794 l 236 794 l 236 0 l 47 0 m -6 -160 l 290 -160 l 290 -360 l -6 -360 l -6 -160 "},"Í":{"ha":283,"x_min":-29,"x_max":313,"o":"m 289 -360 l -7 -360 l -7 -160 l 289 -160 l 289 -360 m 47 0 l 47 794 l 236 794 l 236 0 l 47 0 m -29 1154 l 313 1154 l 313 954 l 175 954 l 290 1103 l 94 1103 l 4 954 l -29 954 l -29 1154 "},"Î":{"ha":283,"x_min":-153,"x_max":432,"o":"m 196 954 l 83 954 l 135 1050 l 196 954 m -153 1154 l 432 1154 l 432 954 l 399 954 l 304 1103 l -36 1103 l -119 954 l -153 954 l -153 1154 m 47 0 l 47 794 l 236 794 l 236 0 l 47 0 m -6 -160 l 290 -160 l 290 -360 l -6 -360 l -6 -160 "},"Ï":{"ha":283,"x_min":-181,"x_max":465,"o":"m -181 1154 l 465 1154 l 465 954 l 401 954 l 401 1103 l 213 1103 l 213 954 l 69 954 l 69 1103 l -119 1103 l -119 954 l -181 954 l -181 1154 m 47 0 l 47 794 l 236 794 l 236 0 l 47 0 m -6 -160 l 290 -160 l 290 -360 l -6 -360 l -6 -160 "},"Ð":{"ha":976,"x_min":-6,"x_max":983,"o":"m 983 1154 l 983 954 l -6 954 l -6 1154 l 983 1154 m 983 -160 l 983 -360 l -6 -360 l -6 -160 l 983 -160 m 128 303 l 47 303 l 47 492 l 128 492 l 128 794 l 531 794 q 663 767 594 794 q 789 692 732 739 q 885 581 846 644 q 929 447 924 518 l 929 347 q 885 213 924 276 q 789 103 846 150 q 663 28 732 56 q 531 0 594 0 l 389 0 l 389 167 l 528 167 q 598 187 561 167 q 665 239 635 207 q 717 310 696 271 q 740 386 738 349 l 740 408 q 717 485 738 446 q 665 556 696 524 q 598 608 635 588 q 528 628 561 628 l 317 628 l 317 492 l 414 492 l 414 303 l 317 303 l 317 0 l 128 0 l 128 303 "},"Ñ":{"ha":896,"x_min":-7,"x_max":904,"o":"m -6 -160 l 904 -160 l 904 -360 l -6 -360 l -6 -160 m 432 954 l 307 954 l 358 1050 l 432 954 m -7 954 l -7 1154 l 903 1154 l 903 954 l 696 954 l 792 1103 l 604 1103 l 542 1006 l 465 1103 l 188 1103 l 104 954 l -7 954 m 450 800 q 583 782 514 800 q 708 728 651 764 q 804 640 765 693 q 849 515 843 586 l 849 0 l 660 0 l 660 476 q 636 543 657 514 q 585 592 615 572 q 517 623 554 613 q 447 633 481 633 l 236 633 l 236 0 l 47 0 l 47 800 l 450 800 "},"Ò":{"ha":896,"x_min":-7,"x_max":900,"o":"m 900 -160 l 900 -360 l -7 -360 l -7 -160 l 900 -160 m 900 954 l 563 954 l 472 1103 l 276 1103 l 392 954 l -7 954 l -7 1154 l 900 1154 l 900 954 m 226 396 q 246 306 226 349 q 297 233 265 264 q 368 183 328 201 q 451 164 408 164 q 535 181 494 164 q 606 229 575 199 q 655 303 636 260 q 674 396 674 346 q 655 491 674 447 q 606 566 636 535 q 535 615 575 597 q 451 632 494 632 q 368 613 408 632 q 297 561 328 593 q 246 486 265 529 q 226 396 226 443 m 43 396 q 72 551 43 478 q 155 681 101 625 q 284 769 208 736 q 451 801 360 801 q 618 769 543 801 q 747 681 693 736 q 831 551 801 625 q 860 396 860 478 q 829 241 860 314 q 744 113 799 168 q 615 25 690 57 q 451 -7 540 -7 q 286 25 361 -7 q 157 113 211 57 q 73 241 103 168 q 43 396 43 314 "},"Ó":{"ha":896,"x_min":-6,"x_max":901,"o":"m -6 1154 l 901 1154 l 901 954 l 503 954 l 618 1103 l 422 1103 l 332 954 l -6 954 l -6 1154 m 901 -160 l 901 -360 l -6 -360 l -6 -160 l 901 -160 m 226 396 q 246 306 226 349 q 297 233 265 264 q 368 183 328 201 q 451 164 408 164 q 535 181 494 164 q 606 229 575 199 q 655 303 636 260 q 674 396 674 346 q 655 491 674 447 q 606 566 636 535 q 535 615 575 597 q 451 632 494 632 q 368 613 408 632 q 297 561 328 593 q 246 486 265 529 q 226 396 226 443 m 43 396 q 72 551 43 478 q 155 681 101 625 q 284 769 208 736 q 451 801 360 801 q 618 769 543 801 q 747 681 693 736 q 831 551 801 625 q 860 396 860 478 q 829 241 860 314 q 744 113 799 168 q 615 25 690 57 q 451 -7 540 -7 q 286 25 361 -7 q 157 113 211 57 q 73 241 103 168 q 43 396 43 314 "},"Ô":{"ha":896,"x_min":-6,"x_max":901,"o":"m 501 954 l 389 954 l 440 1050 l 501 954 m -6 1154 l 901 1154 l 901 954 l 704 954 l 610 1103 l 269 1103 l 186 954 l -6 954 l -6 1154 m 901 -160 l 901 -360 l -6 -360 l -6 -160 l 901 -160 m 226 396 q 246 306 226 349 q 297 233 265 264 q 368 183 328 201 q 451 164 408 164 q 535 181 494 164 q 606 229 575 199 q 655 303 636 260 q 674 396 674 346 q 655 491 674 447 q 606 566 636 535 q 535 615 575 597 q 451 632 494 632 q 368 613 408 632 q 297 561 328 593 q 246 486 265 529 q 226 396 226 443 m 43 396 q 72 551 43 478 q 155 681 101 625 q 284 769 208 736 q 451 801 360 801 q 618 769 543 801 q 747 681 693 736 q 831 551 801 625 q 860 396 860 478 q 829 241 860 314 q 744 113 799 168 q 615 25 690 57 q 451 -7 540 -7 q 286 25 361 -7 q 157 113 211 57 q 73 241 103 168 q 43 396 43 314 "},"Õ":{"ha":896,"x_min":-7,"x_max":904,"o":"m -6 -160 l 904 -160 l 904 -360 l -6 -360 l -6 -160 m 432 954 l 307 954 l 358 1050 l 432 954 m -7 954 l -7 1154 l 903 1154 l 903 954 l 696 954 l 792 1103 l 604 1103 l 542 1006 l 465 1103 l 188 1103 l 104 954 l -7 954 m 226 396 q 246 306 226 349 q 297 233 265 264 q 368 183 328 201 q 451 164 408 164 q 535 181 494 164 q 606 229 575 199 q 655 303 636 260 q 674 396 674 346 q 655 491 674 447 q 606 566 636 535 q 535 615 575 597 q 451 632 494 632 q 368 613 408 632 q 297 561 328 593 q 246 486 265 529 q 226 396 226 443 m 43 396 q 72 551 43 478 q 155 681 101 625 q 284 769 208 736 q 451 801 360 801 q 618 769 543 801 q 747 681 693 736 q 831 551 801 625 q 860 396 860 478 q 829 241 860 314 q 744 113 799 168 q 615 25 690 57 q 451 -7 540 -7 q 286 25 361 -7 q 157 113 211 57 q 73 241 103 168 q 43 396 43 314 "},"Ö":{"ha":896,"x_min":-6,"x_max":901,"o":"m -6 1154 l 901 1154 l 901 954 l 707 954 l 707 1103 l 518 1103 l 518 954 l 375 954 l 375 1103 l 186 1103 l 186 954 l -6 954 l -6 1154 m -6 -160 l 901 -160 l 901 -360 l -6 -360 l -6 -160 m 226 396 q 246 306 226 349 q 297 233 265 264 q 368 183 328 201 q 451 164 408 164 q 535 181 494 164 q 606 229 575 199 q 655 303 636 260 q 674 396 674 346 q 655 491 674 447 q 606 566 636 535 q 535 615 575 597 q 451 632 494 632 q 368 613 408 632 q 297 561 328 593 q 246 486 265 529 q 226 396 226 443 m 43 396 q 72 551 43 478 q 155 681 101 625 q 284 769 208 736 q 451 801 360 801 q 618 769 543 801 q 747 681 693 736 q 831 551 801 625 q 860 396 860 478 q 829 241 860 314 q 744 113 799 168 q 615 25 690 57 q 451 -7 540 -7 q 286 25 361 -7 q 157 113 211 57 q 73 241 103 168 q 43 396 43 314 "},"×":{"ha":607,"x_min":-6,"x_max":615,"o":"m 56 283 l 169 397 l 53 513 l 188 646 l 303 531 l 418 646 l 553 513 l 436 397 l 550 283 l 417 149 l 303 263 l 189 149 l 56 283 m 614 -160 l 614 -360 l -6 -360 l -6 -160 l 614 -160 m 615 1154 l 615 954 l -6 954 l -6 1154 l 615 1154 "},"Ø":{"ha":903,"x_min":-6,"x_max":910,"o":"m 43 396 q 73 241 43 314 q 157 113 103 168 q 286 25 211 57 q 451 -7 361 -7 q 615 25 540 -7 q 744 113 690 57 q 829 241 799 168 q 860 396 860 314 q 831 551 860 478 q 747 681 801 625 q 618 769 693 736 q 451 801 543 801 q 284 769 360 801 q 155 681 208 736 q 72 551 101 625 q 43 396 43 478 m -6 1154 l -6 954 l 910 954 l 910 1154 l -6 1154 m -6 -160 l -6 -360 l 910 -360 l 910 -160 l -6 -160 m 619 550 q 659 481 644 519 q 674 396 674 442 q 655 303 674 346 q 606 229 636 260 q 535 181 575 199 q 453 164 496 164 l 619 550 m 226 396 q 245 485 226 443 q 294 560 264 528 q 365 611 325 592 q 447 632 406 631 l 283 246 q 242 315 257 276 q 226 396 226 353 "},"Ù":{"ha":896,"x_min":-7,"x_max":900,"o":"m 444 -6 q 311 13 379 -6 q 186 66 243 31 q 90 155 129 101 q 46 279 51 208 l 46 794 l 235 794 l 235 318 q 258 251 238 281 q 310 202 279 222 q 377 172 340 182 q 447 161 414 161 q 580 196 522 161 q 658 297 638 231 l 658 794 l 847 794 l 847 278 q 805 157 842 210 q 712 68 768 104 q 585 13 656 32 q 444 -6 515 -6 m 900 -160 l 900 -360 l -7 -360 l -7 -160 l 900 -160 m 900 954 l 563 954 l 472 1103 l 276 1103 l 392 954 l -7 954 l -7 1154 l 900 1154 l 900 954 "},"Ú":{"ha":896,"x_min":-6,"x_max":901,"o":"m -6 1154 l 901 1154 l 901 954 l 503 954 l 618 1103 l 422 1103 l 332 954 l -6 954 l -6 1154 m 901 -160 l 901 -360 l -6 -360 l -6 -160 l 901 -160 m 450 -6 q 309 13 379 -6 q 183 68 239 32 q 90 157 126 104 q 47 278 53 210 l 47 794 l 236 794 l 236 297 q 315 196 257 231 q 447 161 372 161 q 517 172 481 161 q 585 202 554 182 q 636 251 615 222 q 660 318 657 281 l 660 794 l 849 794 l 849 279 q 804 155 843 208 q 708 66 765 101 q 583 13 651 31 q 450 -6 514 -6 "},"Û":{"ha":896,"x_min":-6,"x_max":901,"o":"m 501 954 l 389 954 l 440 1050 l 501 954 m -6 1154 l 901 1154 l 901 954 l 704 954 l 610 1103 l 269 1103 l 186 954 l -6 954 l -6 1154 m 901 -160 l 901 -360 l -6 -360 l -6 -160 l 901 -160 m 450 -6 q 309 13 379 -6 q 183 68 239 32 q 90 157 126 104 q 47 278 53 210 l 47 794 l 236 794 l 236 297 q 315 196 257 231 q 447 161 372 161 q 517 172 481 161 q 585 202 554 182 q 636 251 615 222 q 660 318 657 281 l 660 794 l 849 794 l 849 279 q 804 155 843 208 q 708 66 765 101 q 583 13 651 31 q 450 -6 514 -6 "},"Ü":{"ha":896,"x_min":-6,"x_max":901,"o":"m -6 1154 l 901 1154 l 901 954 l 707 954 l 707 1103 l 518 1103 l 518 954 l 375 954 l 375 1103 l 186 1103 l 186 954 l -6 954 l -6 1154 m -6 -160 l 901 -160 l 901 -360 l -6 -360 l -6 -160 m 450 -6 q 309 13 379 -6 q 183 68 239 32 q 90 157 126 104 q 47 278 53 210 l 47 794 l 236 794 l 236 297 q 315 196 257 231 q 447 161 372 161 q 517 172 481 161 q 585 202 554 182 q 636 251 615 222 q 660 318 657 281 l 660 794 l 849 794 l 849 279 q 804 155 843 208 q 708 66 765 101 q 583 13 651 31 q 450 -6 514 -6 "},"Ý":{"ha":896,"x_min":-6,"x_max":901,"o":"m -6 1154 l 901 1154 l 901 954 l 500 954 l 615 1103 l 419 1103 l 329 954 l -6 954 l -6 1154 m 901 -160 l 901 -360 l -6 -360 l -6 -160 l 901 -160 m 353 0 l 353 239 q 241 273 294 250 q 146 331 188 296 q 78 411 104 365 q 47 514 51 457 l 47 794 l 236 794 l 236 533 q 315 432 257 467 q 447 397 372 397 q 517 408 481 397 q 585 438 554 418 q 636 488 615 458 q 660 554 657 517 l 660 794 l 849 794 l 849 515 q 817 410 844 457 q 746 328 789 363 q 650 271 703 293 q 542 239 597 249 l 542 0 l 353 0 "},"Þ":{"ha":899,"x_min":-6,"x_max":907,"o":"m 907 -160 l 907 -360 l -6 -360 l -6 -160 l 907 -160 m 907 1154 l 907 954 l -6 954 l -6 1154 l 907 1154 m 47 794 l 236 794 l 236 671 l 449 671 q 584 665 513 671 q 715 632 656 658 q 813 554 774 606 q 851 411 851 503 q 830 294 851 343 q 773 213 808 246 q 690 162 738 181 q 590 134 642 143 q 483 122 538 125 q 379 119 429 119 l 308 119 l 308 306 l 432 306 q 598 327 538 306 q 658 406 658 349 q 635 455 658 436 q 578 485 613 474 q 505 500 544 496 q 432 504 465 504 l 236 504 l 236 0 l 47 0 l 47 794 "},"ß":{"ha":899,"x_min":-6,"x_max":907,"o":"m -6 954 l -6 1154 l 907 1154 l 907 954 l -6 954 m -6 -360 l -6 -160 l 907 -160 l 907 -360 l -6 -360 m 464 794 q 597 789 528 794 q 722 758 665 783 q 815 681 779 733 q 851 535 851 628 q 843 484 851 506 q 822 446 835 463 q 792 417 808 429 q 761 397 776 406 q 795 372 779 385 q 824 344 811 360 q 844 308 836 328 q 851 260 851 288 q 820 121 851 172 q 739 42 789 69 q 626 8 689 15 q 503 0 564 0 l 308 0 l 308 167 l 472 167 q 537 169 503 167 q 598 180 571 172 q 643 201 625 188 q 661 236 661 214 q 644 273 661 260 q 599 293 628 286 q 529 301 569 300 q 442 303 489 303 l 308 303 l 308 492 l 486 492 q 614 503 567 492 q 661 558 661 515 q 644 594 661 581 q 599 615 626 607 q 538 625 572 622 q 472 628 504 628 l 463 628 q 390 626 429 628 q 317 618 351 625 q 261 597 283 611 q 239 558 239 583 l 239 -83 l 49 -83 l 49 535 q 79 671 49 619 q 158 750 110 722 q 267 786 207 778 q 389 794 328 794 l 464 794 "},"à":{"ha":896,"x_min":-7,"x_max":900,"o":"m 900 -160 l 900 -360 l -7 -360 l -7 -160 l 900 -160 m 900 954 l 563 954 l 472 1103 l 276 1103 l 392 954 l -7 954 l -7 1154 l 900 1154 l 900 954 m 450 800 q 583 782 514 800 q 708 728 651 764 q 804 640 765 693 q 849 515 843 586 l 849 0 l 660 0 l 660 242 l 308 242 l 308 431 l 660 431 l 660 476 q 636 543 657 514 q 585 592 615 572 q 517 623 554 613 q 447 633 481 633 q 315 599 372 633 q 236 497 257 564 l 236 0 l 47 0 l 47 517 q 90 638 53 585 q 183 726 126 690 q 309 781 239 763 q 450 800 379 800 "},"á":{"ha":896,"x_min":-6,"x_max":901,"o":"m -6 1154 l 901 1154 l 901 954 l 503 954 l 618 1103 l 422 1103 l 332 954 l -6 954 l -6 1154 m 901 -160 l 901 -360 l -6 -360 l -6 -160 l 901 -160 m 450 800 q 583 782 514 800 q 708 728 651 764 q 804 640 765 693 q 849 515 843 586 l 849 0 l 660 0 l 660 242 l 308 242 l 308 431 l 660 431 l 660 476 q 636 543 657 514 q 585 592 615 572 q 517 623 554 613 q 447 633 481 633 q 315 599 372 633 q 236 497 257 564 l 236 0 l 47 0 l 47 517 q 90 638 53 585 q 183 726 126 690 q 309 781 239 763 q 450 800 379 800 "},"â":{"ha":896,"x_min":-6,"x_max":901,"o":"m 501 954 l 389 954 l 440 1050 l 501 954 m -6 1154 l 901 1154 l 901 954 l 704 954 l 610 1103 l 269 1103 l 186 954 l -6 954 l -6 1154 m 901 -160 l 901 -360 l -6 -360 l -6 -160 l 901 -160 m 450 800 q 583 782 514 800 q 708 728 651 764 q 804 640 765 693 q 849 515 843 586 l 849 0 l 660 0 l 660 242 l 308 242 l 308 431 l 660 431 l 660 476 q 636 543 657 514 q 585 592 615 572 q 517 623 554 613 q 447 633 481 633 q 315 599 372 633 q 236 497 257 564 l 236 0 l 47 0 l 47 517 q 90 638 53 585 q 183 726 126 690 q 309 781 239 763 q 450 800 379 800 "},"ã":{"ha":896,"x_min":-7,"x_max":904,"o":"m -6 -160 l 904 -160 l 904 -360 l -6 -360 l -6 -160 m 432 954 l 307 954 l 358 1050 l 432 954 m -7 954 l -7 1154 l 903 1154 l 903 954 l 696 954 l 792 1103 l 604 1103 l 542 1006 l 465 1103 l 188 1103 l 104 954 l -7 954 m 450 800 q 583 782 514 800 q 708 728 651 764 q 804 640 765 693 q 849 515 843 586 l 849 0 l 660 0 l 660 242 l 308 242 l 308 431 l 660 431 l 660 476 q 636 543 657 514 q 585 592 615 572 q 517 623 554 613 q 447 633 481 633 q 315 599 372 633 q 236 497 257 564 l 236 0 l 47 0 l 47 517 q 90 638 53 585 q 183 726 126 690 q 309 781 239 763 q 450 800 379 800 "},"ä":{"ha":896,"x_min":-6,"x_max":901,"o":"m -6 1154 l 901 1154 l 901 954 l 707 954 l 707 1103 l 518 1103 l 518 954 l 375 954 l 375 1103 l 186 1103 l 186 954 l -6 954 l -6 1154 m -6 -160 l 901 -160 l 901 -360 l -6 -360 l -6 -160 m 450 800 q 583 782 514 800 q 708 728 651 764 q 804 640 765 693 q 849 515 843 586 l 849 0 l 660 0 l 660 242 l 308 242 l 308 431 l 660 431 l 660 476 q 636 543 657 514 q 585 592 615 572 q 517 623 554 613 q 447 633 481 633 q 315 599 372 633 q 236 497 257 564 l 236 0 l 47 0 l 47 517 q 90 638 53 585 q 183 726 126 690 q 309 781 239 763 q 450 800 379 800 "},"å":{"ha":896,"x_min":-6,"x_max":901,"o":"m -6 1154 l 901 1154 l 901 954 l 540 954 l 540 1103 l 353 1103 l 353 954 l -6 954 l -6 1154 m -6 -160 l 901 -160 l 901 -360 l -6 -360 l -6 -160 m 450 800 q 583 782 514 800 q 708 728 651 764 q 804 640 765 693 q 849 515 843 586 l 849 0 l 660 0 l 660 242 l 308 242 l 308 431 l 660 431 l 660 476 q 636 543 657 514 q 585 592 615 572 q 517 623 554 613 q 447 633 481 633 q 315 599 372 633 q 236 497 257 564 l 236 0 l 47 0 l 47 517 q 90 638 53 585 q 183 726 126 690 q 309 781 239 763 q 450 800 379 800 "},"æ":{"ha":1429,"x_min":-6,"x_max":1436,"o":"m 1382 0 l 1382 167 l 1090 167 q 1020 187 1057 167 q 951 239 983 207 q 899 310 919 271 q 878 386 878 349 l 878 406 q 900 483 879 443 q 952 554 921 522 q 1020 607 983 586 q 1090 628 1057 628 l 1382 628 l 1382 794 l 1088 794 q 932 756 1011 794 q 790 656 853 718 q 722 719 761 692 q 637 764 682 746 q 544 791 592 782 q 450 800 496 800 q 309 781 379 800 q 183 726 239 763 q 90 638 126 690 q 47 517 53 585 l 47 0 l 236 0 l 236 497 q 315 599 257 564 q 447 633 372 633 q 517 623 481 633 q 585 592 554 613 q 636 543 615 572 q 660 476 657 514 l 660 431 l 308 431 l 308 242 l 660 242 l 660 0 l 849 0 l 849 88 q 965 24 903 47 q 1088 0 1028 0 l 1382 0 m -6 1154 l -6 954 l 1436 954 l 1436 1154 l -6 1154 m -6 -160 l -6 -360 l 1436 -360 l 1436 -160 l -6 -160 m 1338 492 l 982 492 l 982 303 l 1338 303 l 1338 492 "},"ç":{"ha":783,"x_min":-6,"x_max":790,"o":"m 503 -160 l 503 0 l 736 0 l 736 167 l 449 167 q 378 188 415 167 q 310 240 342 208 q 258 312 279 272 q 236 389 238 351 l 236 408 q 257 485 236 446 q 310 556 278 524 q 378 608 342 588 q 449 628 415 628 l 736 628 l 736 794 l 446 794 q 313 767 381 794 q 188 692 244 739 q 92 581 131 644 q 47 447 53 518 l 47 347 q 80 233 51 288 q 152 133 108 178 q 251 57 196 89 q 363 11 306 25 l 363 -96 l 274 -96 l 274 -160 l 503 -160 m -6 954 l 790 954 l 790 1154 l -6 1154 l -6 954 m 274 -218 l 274 -160 l -6 -160 l -6 -360 l 789 -360 l 789 -160 l 503 -160 l 503 -218 l 274 -218 "},"è":{"ha":783,"x_min":-7,"x_max":790,"o":"m 736 0 l 446 0 q 313 28 381 0 q 188 103 244 56 q 92 213 131 150 q 47 347 53 276 l 47 447 q 92 581 53 518 q 188 692 131 644 q 313 767 244 739 q 446 794 381 794 l 736 794 l 736 628 l 449 628 q 378 607 415 628 q 310 554 342 586 q 258 483 279 522 q 236 406 238 443 l 236 386 q 257 310 236 349 q 310 239 278 271 q 378 187 342 207 q 449 167 415 167 l 736 167 l 736 0 m 692 492 l 692 303 l 340 303 l 340 492 l 692 492 m -6 -160 l 790 -160 l 790 -360 l -6 -360 l -6 -160 m 789 954 l 546 954 l 456 1103 l 260 1103 l 375 954 l -7 954 l -7 1154 l 789 1154 l 789 954 "},"é":{"ha":783,"x_min":-6,"x_max":790,"o":"m 736 0 l 446 0 q 313 28 381 0 q 188 103 244 56 q 92 213 131 150 q 47 347 53 276 l 47 447 q 92 581 53 518 q 188 692 131 644 q 313 767 244 739 q 446 794 381 794 l 736 794 l 736 628 l 449 628 q 378 607 415 628 q 310 554 342 586 q 258 483 279 522 q 236 406 238 443 l 236 386 q 257 310 236 349 q 310 239 278 271 q 378 187 342 207 q 449 167 415 167 l 736 167 l 736 0 m 692 492 l 692 303 l 340 303 l 340 492 l 692 492 m -6 -160 l 790 -160 l 790 -360 l -6 -360 l -6 -160 m -6 1154 l 789 1154 l 789 954 l 486 954 l 601 1103 l 406 1103 l 315 954 l -6 954 l -6 1154 "},"ê":{"ha":783,"x_min":-6,"x_max":790,"o":"m 736 0 l 446 0 q 313 28 381 0 q 188 103 244 56 q 92 213 131 150 q 47 347 53 276 l 47 447 q 92 581 53 518 q 188 692 131 644 q 313 767 244 739 q 446 794 381 794 l 736 794 l 736 628 l 449 628 q 378 607 415 628 q 310 554 342 586 q 258 483 279 522 q 236 406 238 443 l 236 386 q 257 310 236 349 q 310 239 278 271 q 378 187 342 207 q 449 167 415 167 l 736 167 l 736 0 m 692 492 l 692 303 l 340 303 l 340 492 l 692 492 m -6 -160 l 790 -160 l 790 -360 l -6 -360 l -6 -160 m 485 954 l 372 954 l 424 1050 l 485 954 m -6 1154 l 790 1154 l 790 954 l 688 954 l 593 1103 l 253 1103 l 169 954 l -6 954 l -6 1154 "},"ë":{"ha":783,"x_min":-6,"x_max":790,"o":"m 736 0 l 446 0 q 313 28 381 0 q 188 103 244 56 q 92 213 131 150 q 47 347 53 276 l 47 447 q 92 581 53 518 q 188 692 131 644 q 313 767 244 739 q 446 794 381 794 l 736 794 l 736 628 l 449 628 q 378 607 415 628 q 310 554 342 586 q 258 483 279 522 q 236 406 238 443 l 236 386 q 257 310 236 349 q 310 239 278 271 q 378 187 342 207 q 449 167 415 167 l 736 167 l 736 0 m 692 492 l 692 303 l 340 303 l 340 492 l 692 492 m -6 -160 l 790 -160 l 790 -360 l -6 -360 l -6 -160 m -6 1154 l 790 1154 l 790 954 l 690 954 l 690 1103 l 501 1103 l 501 954 l 358 954 l 358 1103 l 169 1103 l 169 954 l -6 954 l -6 1154 "},"ì":{"ha":283,"x_min":-29,"x_max":313,"o":"m 313 954 l 279 954 l 189 1103 l -7 1103 l 108 954 l -29 954 l -29 1154 l 313 1154 l 313 954 m 47 0 l 47 794 l 236 794 l 236 0 l 47 0 m -6 -160 l 290 -160 l 290 -360 l -6 -360 l -6 -160 "},"í":{"ha":283,"x_min":-29,"x_max":313,"o":"m 289 -360 l -7 -360 l -7 -160 l 289 -160 l 289 -360 m 47 0 l 47 794 l 236 794 l 236 0 l 47 0 m -29 1154 l 313 1154 l 313 954 l 175 954 l 290 1103 l 94 1103 l 4 954 l -29 954 l -29 1154 "},"î":{"ha":283,"x_min":-153,"x_max":432,"o":"m 196 954 l 83 954 l 135 1050 l 196 954 m -153 1154 l 432 1154 l 432 954 l 399 954 l 304 1103 l -36 1103 l -119 954 l -153 954 l -153 1154 m 47 0 l 47 794 l 236 794 l 236 0 l 47 0 m -6 -160 l 290 -160 l 290 -360 l -6 -360 l -6 -160 "},"ï":{"ha":283,"x_min":-181,"x_max":465,"o":"m -181 1154 l 465 1154 l 465 954 l 401 954 l 401 1103 l 213 1103 l 213 954 l 69 954 l 69 1103 l -119 1103 l -119 954 l -181 954 l -181 1154 m 47 0 l 47 794 l 236 794 l 236 0 l 47 0 m -6 -160 l 290 -160 l 290 -360 l -6 -360 l -6 -160 "},"ð":{"ha":897,"x_min":-7,"x_max":904,"o":"m 238 236 q 255 200 238 214 q 299 179 272 186 q 360 169 326 172 q 426 167 394 167 l 449 167 q 499 178 472 167 q 550 208 525 189 q 597 251 575 226 q 633 303 618 275 l 238 303 l 238 236 m 903 -360 l -6 -360 l -6 -160 l 903 -160 l 903 -360 m 904 954 l -7 954 l -7 1154 l 904 1154 l 904 954 m 283 628 l 49 628 l 49 794 l 283 794 l 283 883 l 472 883 l 472 793 q 600 760 535 789 q 719 683 665 731 q 808 576 772 636 q 850 447 844 515 l 850 347 q 811 213 844 276 q 727 100 778 149 q 613 23 676 51 q 486 -6 550 -6 l 458 -6 q 368 -3 415 -6 q 275 8 321 -1 q 188 33 229 17 q 116 80 147 50 q 66 153 85 110 q 47 260 47 197 l 47 492 l 638 492 q 563 578 610 540 q 472 625 517 615 l 472 544 l 283 544 l 283 628 "},"ñ":{"ha":896,"x_min":-7,"x_max":904,"o":"m 450 800 q 583 782 514 800 q 708 728 651 764 q 804 640 765 693 q 849 515 843 586 l 849 0 l 660 0 l 660 476 q 636 543 657 514 q 585 592 615 572 q 517 623 554 613 q 447 633 481 633 q 315 599 372 633 q 236 497 257 564 l 236 0 l 47 0 l 47 517 q 90 638 53 585 q 183 726 126 690 q 309 781 239 763 q 450 800 379 800 m -6 -160 l 904 -160 l 904 -360 l -6 -360 l -6 -160 m 432 954 l 307 954 l 358 1050 l 432 954 m -7 954 l -7 1154 l 903 1154 l 903 954 l 696 954 l 792 1103 l 604 1103 l 542 1006 l 465 1103 l 188 1103 l 104 954 l -7 954 "},"ò":{"ha":896,"x_min":-7,"x_max":900,"o":"m 900 -160 l 900 -360 l -7 -360 l -7 -160 l 900 -160 m 900 954 l 563 954 l 472 1103 l 276 1103 l 392 954 l -7 954 l -7 1154 l 900 1154 l 900 954 m 226 396 q 246 306 226 349 q 297 233 265 264 q 368 183 328 201 q 451 164 408 164 q 535 181 494 164 q 606 229 575 199 q 655 303 636 260 q 674 396 674 346 q 655 491 674 447 q 606 566 636 535 q 535 615 575 597 q 451 632 494 632 q 368 613 408 632 q 297 561 328 593 q 246 486 265 529 q 226 396 226 443 m 43 396 q 72 551 43 478 q 155 681 101 625 q 284 769 208 736 q 451 801 360 801 q 618 769 543 801 q 747 681 693 736 q 831 551 801 625 q 860 396 860 478 q 829 241 860 314 q 744 113 799 168 q 615 25 690 57 q 451 -7 540 -7 q 286 25 361 -7 q 157 113 211 57 q 73 241 103 168 q 43 396 43 314 "},"ó":{"ha":896,"x_min":-6,"x_max":901,"o":"m -6 1154 l 901 1154 l 901 954 l 503 954 l 618 1103 l 422 1103 l 332 954 l -6 954 l -6 1154 m 901 -160 l 901 -360 l -6 -360 l -6 -160 l 901 -160 m 226 396 q 246 306 226 349 q 297 233 265 264 q 368 183 328 201 q 451 164 408 164 q 535 181 494 164 q 606 229 575 199 q 655 303 636 260 q 674 396 674 346 q 655 491 674 447 q 606 566 636 535 q 535 615 575 597 q 451 632 494 632 q 368 613 408 632 q 297 561 328 593 q 246 486 265 529 q 226 396 226 443 m 43 396 q 72 551 43 478 q 155 681 101 625 q 284 769 208 736 q 451 801 360 801 q 618 769 543 801 q 747 681 693 736 q 831 551 801 625 q 860 396 860 478 q 829 241 860 314 q 744 113 799 168 q 615 25 690 57 q 451 -7 540 -7 q 286 25 361 -7 q 157 113 211 57 q 73 241 103 168 q 43 396 43 314 "},"ô":{"ha":896,"x_min":-6,"x_max":901,"o":"m 501 954 l 389 954 l 440 1050 l 501 954 m -6 1154 l 901 1154 l 901 954 l 704 954 l 610 1103 l 269 1103 l 186 954 l -6 954 l -6 1154 m 901 -160 l 901 -360 l -6 -360 l -6 -160 l 901 -160 m 226 396 q 246 306 226 349 q 297 233 265 264 q 368 183 328 201 q 451 164 408 164 q 535 181 494 164 q 606 229 575 199 q 655 303 636 260 q 674 396 674 346 q 655 491 674 447 q 606 566 636 535 q 535 615 575 597 q 451 632 494 632 q 368 613 408 632 q 297 561 328 593 q 246 486 265 529 q 226 396 226 443 m 43 396 q 72 551 43 478 q 155 681 101 625 q 284 769 208 736 q 451 801 360 801 q 618 769 543 801 q 747 681 693 736 q 831 551 801 625 q 860 396 860 478 q 829 241 860 314 q 744 113 799 168 q 615 25 690 57 q 451 -7 540 -7 q 286 25 361 -7 q 157 113 211 57 q 73 241 103 168 q 43 396 43 314 "},"õ":{"ha":896,"x_min":-7,"x_max":904,"o":"m -6 -160 l 904 -160 l 904 -360 l -6 -360 l -6 -160 m 432 954 l 307 954 l 358 1050 l 432 954 m -7 954 l -7 1154 l 903 1154 l 903 954 l 696 954 l 792 1103 l 604 1103 l 542 1006 l 465 1103 l 188 1103 l 104 954 l -7 954 m 226 396 q 246 306 226 349 q 297 233 265 264 q 368 183 328 201 q 451 164 408 164 q 535 181 494 164 q 606 229 575 199 q 655 303 636 260 q 674 396 674 346 q 655 491 674 447 q 606 566 636 535 q 535 615 575 597 q 451 632 494 632 q 368 613 408 632 q 297 561 328 593 q 246 486 265 529 q 226 396 226 443 m 43 396 q 72 551 43 478 q 155 681 101 625 q 284 769 208 736 q 451 801 360 801 q 618 769 543 801 q 747 681 693 736 q 831 551 801 625 q 860 396 860 478 q 829 241 860 314 q 744 113 799 168 q 615 25 690 57 q 451 -7 540 -7 q 286 25 361 -7 q 157 113 211 57 q 73 241 103 168 q 43 396 43 314 "},"ö":{"ha":896,"x_min":-6,"x_max":901,"o":"m -6 1154 l 901 1154 l 901 954 l 707 954 l 707 1103 l 518 1103 l 518 954 l 375 954 l 375 1103 l 186 1103 l 186 954 l -6 954 l -6 1154 m -6 -160 l 901 -160 l 901 -360 l -6 -360 l -6 -160 m 226 396 q 246 306 226 349 q 297 233 265 264 q 368 183 328 201 q 451 164 408 164 q 535 181 494 164 q 606 229 575 199 q 655 303 636 260 q 674 396 674 346 q 655 491 674 447 q 606 566 636 535 q 535 615 575 597 q 451 632 494 632 q 368 613 408 632 q 297 561 328 593 q 246 486 265 529 q 226 396 226 443 m 43 396 q 72 551 43 478 q 155 681 101 625 q 284 769 208 736 q 451 801 360 801 q 618 769 543 801 q 747 681 693 736 q 831 551 801 625 q 860 396 860 478 q 829 241 860 314 q 744 113 799 168 q 615 25 690 57 q 451 -7 540 -7 q 286 25 361 -7 q 157 113 211 57 q 73 241 103 168 q 43 396 43 314 "},"÷":{"ha":607,"x_min":-6,"x_max":615,"o":"m 208 64 l 208 253 l 397 253 l 397 64 l 208 64 m 208 539 l 208 728 l 397 728 l 397 539 l 208 539 m 614 -160 l 614 -360 l -6 -360 l -6 -160 l 614 -160 m 615 1154 l 615 954 l -6 954 l -6 1154 l 615 1154 m 46 303 l 46 492 l 560 492 l 560 303 l 46 303 "},"ø":{"ha":903,"x_min":-6,"x_max":910,"o":"m 43 396 q 87 209 43 296 q 210 67 131 122 l 182 0 l 372 0 q 411 -5 392 -3 q 451 -7 431 -7 q 615 25 540 -7 q 744 113 690 57 q 829 241 799 168 q 860 396 860 314 q 815 585 860 497 q 690 728 771 672 l 719 794 l 531 794 q 492 799 511 797 q 451 801 472 801 q 284 769 360 801 q 155 681 208 736 q 72 551 101 625 q 43 396 43 478 m -6 1154 l -6 954 l 910 954 l 910 1154 l -6 1154 m -6 -160 l -6 -360 l 910 -360 l 910 -160 l -6 -160 m 617 553 q 658 483 643 522 q 674 396 674 443 q 655 303 674 346 q 606 229 636 260 q 535 181 575 199 q 451 164 494 164 l 617 553 m 226 396 q 245 485 226 443 q 295 560 264 528 q 366 611 326 592 q 449 632 406 631 l 285 244 q 226 396 226 307 "},"ù":{"ha":896,"x_min":-7,"x_max":903,"o":"m 444 -6 q 311 13 379 -6 q 186 66 243 31 q 90 155 129 101 q 46 279 51 208 l 46 794 l 235 794 l 235 318 q 258 251 238 281 q 310 202 279 222 q 377 172 340 182 q 447 161 414 161 q 580 196 522 161 q 658 297 638 231 l 658 794 l 847 794 l 847 278 q 805 157 842 210 q 712 68 768 104 q 585 13 656 32 q 444 -6 515 -6 m 901 -160 l 901 -360 l -7 -360 l -7 -160 l 901 -160 m 903 954 l 563 954 l 472 1103 l 276 1103 l 392 954 l -7 954 l -7 1154 l 903 1154 l 903 954 "},"ú":{"ha":896,"x_min":-6,"x_max":901,"o":"m -6 1154 l 901 1154 l 901 954 l 503 954 l 618 1103 l 422 1103 l 332 954 l -6 954 l -6 1154 m 901 -160 l 901 -360 l -6 -360 l -6 -160 l 901 -160 m 450 -6 q 309 13 379 -6 q 183 68 239 32 q 90 157 126 104 q 47 278 53 210 l 47 794 l 236 794 l 236 297 q 315 196 257 231 q 447 161 372 161 q 517 172 481 161 q 585 202 554 182 q 636 251 615 222 q 660 318 657 281 l 660 794 l 849 794 l 849 279 q 804 155 843 208 q 708 66 765 101 q 583 13 651 31 q 450 -6 514 -6 "},"û":{"ha":896,"x_min":-6,"x_max":901,"o":"m 501 954 l 389 954 l 440 1050 l 501 954 m -6 1154 l 901 1154 l 901 954 l 704 954 l 610 1103 l 269 1103 l 186 954 l -6 954 l -6 1154 m 901 -160 l 901 -360 l -6 -360 l -6 -160 l 901 -160 m 450 -6 q 309 13 379 -6 q 183 68 239 32 q 90 157 126 104 q 47 278 53 210 l 47 794 l 236 794 l 236 297 q 315 196 257 231 q 447 161 372 161 q 517 172 481 161 q 585 202 554 182 q 636 251 615 222 q 660 318 657 281 l 660 794 l 849 794 l 849 279 q 804 155 843 208 q 708 66 765 101 q 583 13 651 31 q 450 -6 514 -6 "},"ü":{"ha":896,"x_min":-6,"x_max":901,"o":"m -6 1154 l 901 1154 l 901 954 l 707 954 l 707 1103 l 518 1103 l 518 954 l 375 954 l 375 1103 l 186 1103 l 186 954 l -6 954 l -6 1154 m -6 -160 l 901 -160 l 901 -360 l -6 -360 l -6 -160 m 450 -6 q 309 13 379 -6 q 183 68 239 32 q 90 157 126 104 q 47 278 53 210 l 47 794 l 236 794 l 236 297 q 315 196 257 231 q 447 161 372 161 q 517 172 481 161 q 585 202 554 182 q 636 251 615 222 q 660 318 657 281 l 660 794 l 849 794 l 849 279 q 804 155 843 208 q 708 66 765 101 q 583 13 651 31 q 450 -6 514 -6 "},"ý":{"ha":896,"x_min":-6,"x_max":901,"o":"m -6 1154 l 901 1154 l 901 954 l 500 954 l 615 1103 l 419 1103 l 329 954 l -6 954 l -6 1154 m 901 -160 l 901 -360 l -6 -360 l -6 -160 l 901 -160 m 353 0 l 353 239 q 241 273 294 250 q 146 331 188 296 q 78 411 104 365 q 47 514 51 457 l 47 794 l 236 794 l 236 533 q 315 432 257 467 q 447 397 372 397 q 517 408 481 397 q 585 438 554 418 q 636 488 615 458 q 660 554 657 517 l 660 794 l 849 794 l 849 515 q 817 410 844 457 q 746 328 789 363 q 650 271 703 293 q 542 239 597 249 l 542 0 l 353 0 "},"þ":{"ha":899,"x_min":-6,"x_max":907,"o":"m 907 -160 l 907 -360 l -6 -360 l -6 -160 l 907 -160 m 907 1154 l 907 954 l -6 954 l -6 1154 l 907 1154 m 47 794 l 236 794 l 236 671 l 449 671 q 584 665 513 671 q 715 632 656 658 q 813 554 774 606 q 851 411 851 503 q 830 294 851 343 q 773 213 808 246 q 690 162 738 181 q 590 134 642 143 q 483 122 538 125 q 379 119 429 119 l 308 119 l 308 306 l 432 306 q 598 327 538 306 q 658 406 658 349 q 635 455 658 436 q 578 485 613 474 q 505 500 544 496 q 432 504 465 504 l 236 504 l 236 0 l 47 0 l 47 794 "},"ÿ":{"ha":896,"x_min":-6,"x_max":901,"o":"m -6 1154 l 901 1154 l 901 954 l 707 954 l 707 1103 l 518 1103 l 518 954 l 375 954 l 375 1103 l 186 1103 l 186 954 l -6 954 l -6 1154 m -6 -160 l 901 -160 l 901 -360 l -6 -360 l -6 -160 m 353 0 l 353 239 q 241 273 294 250 q 146 331 188 296 q 78 411 104 365 q 47 514 51 457 l 47 794 l 236 794 l 236 533 q 315 432 257 467 q 447 397 372 397 q 517 408 481 397 q 585 438 554 418 q 636 488 615 458 q 660 554 657 517 l 660 794 l 849 794 l 849 515 q 817 410 844 457 q 746 328 789 363 q 650 271 703 293 q 542 239 597 249 l 542 0 l 353 0 "}}}
